<?xml version="1.0" encoding="UTF-8" standalone="no"?>
<!DOCTYPE svg PUBLIC "-//W3C//DTD SVG 1.1//EN" "http://www.w3.org/Graphics/SVG/1.1/DTD/svg11.dtd">
<svg xmlns="http://www.w3.org/2000/svg" version="1.1" viewBox="0 0 1080 1080">
<path fill="#ffffff" d="M 0.00,0.00 Q 540.00,0.00 1080.00,0.00 Q 1080.00,540.00 1080.00,1080.00 Q 540.00,1080.00 0.00,1080.00 Q 0.00,540.00 0.00,0.00 ZM 518.54,460.50 Q 515.64,463.03 516.29,467.00 L 498.21,516.50 L 493.43,527.28 Q 493.29,527.59 493.34,528.24 L 493.54,530.50 Q 484.80,554.18 476.50,578.02 Q 476.47,578.10 476.07,579.09 Q 475.09,581.49 477.70,581.34 Q 478.71,581.28 479.27,581.45 Q 480.05,581.68 480.79,582.00 Q 478.81,583.88 480.24,584.82 Q 480.92,585.26 482.35,585.22 Q 512.05,584.38 541.75,585.00 Q 555.63,585.29 561.73,584.64 Q 587.91,581.84 611.31,566.56 Q 636.17,550.34 650.69,527.69 Q 666.00,503.80 668.00,476.75 Q 669.37,458.30 658.75,442.21 Q 657.78,440.01 655.71,438.75 Q 655.92,437.42 655.12,436.61 Q 654.18,435.67 654.15,435.63 Q 648.41,428.04 640.56,423.94 Q 637.59,422.38 632.20,420.11 Q 629.65,419.03 626.95,419.00 Q 624.23,418.96 621.50,419.04 Q 614.39,418.18 602.25,418.00 Q 564.69,417.45 537.26,418.66 Q 533.62,418.82 532.81,421.06 Q 525.66,440.78 518.54,460.50 ZM 725.46,477.50 L 745.01,423.79 A 0.48,0.42 -74.4 0 0 744.71,423.17 L 742.25,422.71 Q 740.73,422.26 740.41,420.15 A 1.67,1.67 87.0 0 0 738.85,418.74 Q 723.53,417.96 709.25,418.54 Q 706.51,418.34 703.80,418.74 Q 702.89,418.87 703.80,418.93 L 705.50,419.04 Q 702.61,419.82 701.19,423.19 Q 695.36,436.99 693.54,442.25 L 693.51,442.03 Q 693.47,441.77 693.29,441.99 Q 691.30,444.39 691.54,447.50 Q 690.65,448.90 690.38,450.45 Q 689.98,452.66 689.66,453.44 Q 688.44,456.39 687.23,459.34 Q 687.19,459.43 686.06,461.54 Q 685.23,463.10 685.29,465.00 Q 685.23,461.49 684.97,463.89 Q 684.94,464.18 684.79,464.45 Q 683.40,466.91 683.29,469.75 Q 683.38,470.67 683.04,471.50 L 682.97,469.81 Q 682.95,469.29 682.79,469.79 Q 681.94,472.46 680.62,474.91 Q 679.99,476.08 679.99,477.25 Q 679.99,478.50 680.04,479.75 L 678.04,485.50 Q 677.62,482.62 677.45,485.38 Q 677.44,485.68 677.27,485.95 Q 676.06,487.93 676.04,490.25 Q 672.86,497.57 670.71,505.25 Q 670.07,503.02 669.95,504.93 Q 669.94,505.18 669.81,505.42 Q 668.72,507.44 669.04,509.75 L 661.29,531.75 L 661.22,529.81 Q 661.20,529.27 660.98,529.77 L 655.94,541.54 A 1.78,1.45 56.9 0 0 655.84,542.49 L 656.29,545.25 Q 649.85,561.93 644.50,579.00 Q 643.52,582.13 646.75,581.25 Q 648.45,580.79 648.54,582.25 Q 646.38,585.44 650.00,585.02 Q 655.12,584.42 660.25,585.00 Q 663.92,585.41 680.52,584.85 Q 683.86,584.73 685.61,583.40 Q 687.90,581.66 688.98,578.70 Q 697.76,554.68 706.27,530.57 Q 707.33,527.55 708.39,526.33 Q 710.12,524.35 712.67,523.84 Q 713.16,523.74 719.35,523.77 Q 742.17,523.87 764.98,523.51 Q 765.52,523.50 766.46,523.23 Q 767.21,523.01 768.00,523.04 Q 768.21,524.22 767.25,527.00 Q 759.02,550.87 750.30,574.56 Q 749.31,577.22 750.58,579.68 Q 752.74,583.87 756.77,584.80 Q 757.67,585.00 764.25,585.00 Q 775.75,584.99 787.25,584.91 Q 791.33,584.88 792.44,581.94 Q 814.90,522.46 849.09,423.97 A 1.41,0.96 -55.8 0 0 849.09,423.02 Q 848.62,422.00 847.25,422.21 Q 844.76,422.27 845.10,419.36 A 1.04,1.03 -85.1 0 0 844.13,418.20 Q 827.63,417.34 810.23,418.25 Q 807.25,418.41 805.81,421.03 Q 804.56,423.30 803.59,426.28 Q 795.37,451.54 785.51,476.22 Q 784.29,479.27 781.01,479.57 Q 777.24,479.91 773.49,479.76 Q 766.49,479.49 766.01,479.49 Q 746.09,479.46 726.18,479.56 A 0.75,0.65 -8.0 0 1 725.49,479.11 Q 725.24,478.36 725.46,477.50 ZM 846.79,456.50 Q 846.74,454.46 846.55,455.48 Q 846.49,455.76 846.36,455.98 Q 844.27,459.59 844.29,463.75 L 826.00,513.29 Q 825.44,511.81 825.43,513.34 Q 825.43,513.69 825.27,513.98 Q 824.05,516.20 824.04,518.75 L 820.54,528.25 Q 820.38,526.44 820.20,528.08 Q 820.19,528.19 820.14,528.29 Q 819.33,529.94 819.29,531.75 L 810.04,557.50 Q 809.01,558.24 808.94,559.49 Q 808.93,559.66 808.85,559.51 Q 808.64,559.12 808.60,559.51 Q 808.47,560.88 808.54,562.25 Q 808.43,563.37 807.79,564.25 L 807.73,563.28 Q 807.68,562.58 807.32,563.24 Q 805.34,566.85 805.29,571.00 L 802.38,579.42 A 0.93,0.89 -77.5 0 0 803.12,580.64 Q 805.85,580.91 806.29,582.50 Q 805.63,584.69 807.50,584.75 Q 816.93,585.07 832.00,584.90 Q 844.26,584.77 852.00,584.86 Q 861.17,584.96 870.34,585.10 Q 882.35,585.29 888.65,584.60 Q 920.74,581.09 946.44,560.72 Q 964.31,546.56 976.94,528.19 Q 996.51,499.72 993.75,464.75 Q 992.77,452.33 984.00,440.71 Q 968.01,419.46 942.00,418.50 Q 917.56,417.60 870.14,417.99 Q 870.03,417.99 867.37,417.89 Q 862.12,417.69 859.51,421.22 Q 858.74,422.26 856.18,429.32 Q 851.28,442.84 846.79,456.50 ZM 76.50,468.46 Q 80.92,471.15 85.94,472.24 A 1.67,1.65 -82.8 0 1 87.25,473.94 Q 87.10,477.51 87.26,481.01 Q 87.75,491.36 94.13,499.38 Q 101.53,508.69 112.43,512.31 A 1.14,1.14 -81.6 0 1 113.21,513.36 Q 113.42,519.91 114.13,525.27 Q 115.44,535.18 122.81,541.74 A 1.80,1.37 -83.5 0 1 123.29,542.55 Q 123.57,543.64 124.31,544.19 Q 130.81,549.00 138.20,552.32 A 0.94,0.94 -75.8 0 1 138.75,553.25 Q 137.30,572.53 151.75,584.79 Q 161.48,592.85 173.25,593.00 Q 211.57,593.50 292.25,593.02 Q 301.50,592.97 310.75,593.00 Q 380.75,593.25 450.75,593.31 Q 452.86,593.32 454.91,592.92 Q 457.07,592.51 458.30,590.87 Q 459.94,588.70 461.19,585.44 Q 492.09,504.78 522.76,424.04 A 0.57,0.54 -67.5 0 0 522.49,423.34 Q 520.96,422.66 519.25,422.71 Q 518.71,422.57 518.44,422.17 Q 518.24,421.87 518.30,421.29 Q 518.42,420.17 518.43,419.06 A 0.49,0.49 -89.4 0 0 517.94,418.56 Q 483.35,418.67 448.75,418.62 Q 355.91,418.50 263.08,418.50 Q 262.35,418.50 259.92,418.67 Q 258.56,418.76 256.75,418.75 Q 172.73,418.14 74.42,418.74 Q 73.86,418.75 72.59,418.96 Q 71.69,419.11 70.75,419.04 L 67.25,418.76 A 1.56,1.15 -53.5 0 0 66.33,419.04 Q 62.15,421.96 60.75,424.00 Q 60.02,425.06 59.57,428.25 A 1.26,1.19 -16.0 0 1 59.10,429.04 Q 57.98,429.91 57.81,430.81 Q 56.01,440.34 58.75,450.00 Q 59.72,453.42 61.64,456.14 Q 63.11,458.21 65.79,461.38 Q 68.96,465.14 73.49,467.35 Q 73.82,467.51 74.24,467.96 Q 75.07,468.86 76.50,468.46 ZM 473.00,636.54 L 476.25,639.54 Q 476.44,640.15 476.00,640.25 Q 473.43,640.82 470.80,641.06 Q 468.24,641.30 467.87,643.78 L 461.40,686.80 A 2.11,2.04 15.4 0 0 462.71,689.03 Q 464.09,689.58 465.29,691.50 Q 465.80,694.07 468.01,693.81 Q 470.48,693.53 470.52,693.53 Q 475.46,693.62 480.40,693.35 Q 482.43,693.24 483.38,692.47 Q 484.71,691.41 485.02,689.50 Q 487.38,675.04 489.37,660.52 Q 489.39,660.37 490.32,655.01 Q 491.14,650.24 490.50,646.75 Q 490.19,645.08 487.75,644.21 Q 484.35,642.74 487.00,640.54 Q 492.86,638.64 495.71,633.20 Q 499.53,625.91 493.75,620.21 Q 492.39,618.60 489.69,616.56 Q 483.28,611.73 476.14,615.09 Q 468.59,618.63 467.99,626.31 Q 467.75,629.41 469.10,631.97 Q 470.50,634.63 473.00,636.54 ZM 523.21,690.50 Q 524.97,693.37 528.20,694.27 Q 536.53,696.61 542.47,692.45 Q 545.60,690.25 550.16,682.43 Q 566.24,654.78 581.49,626.66 Q 581.52,626.59 582.19,625.49 Q 584.27,621.99 580.25,621.21 L 578.40,618.48 A 1.94,1.55 73.0 0 0 577.23,617.68 Q 571.90,616.89 567.75,616.88 Q 563.74,616.87 560.52,618.81 Q 558.33,620.12 556.53,622.76 Q 555.08,624.89 553.69,627.69 Q 546.72,641.72 536.69,658.89 Q 535.30,661.25 534.79,658.75 Q 530.02,641.69 525.75,624.50 Q 525.25,622.50 522.46,620.25 Q 520.88,618.31 518.86,616.94 Q 517.17,615.79 514.72,615.85 Q 508.72,615.99 502.75,616.50 Q 499.67,616.76 500.52,619.58 Q 500.79,620.47 500.81,620.55 Q 510.77,660.55 518.00,683.75 Q 519.08,687.21 523.21,690.50 ZM 258.25,617.54 Q 262.87,618.38 267.50,619.25 Q 267.94,619.33 267.75,619.96 Q 258.14,620.28 248.56,619.60 Q 247.87,619.55 248.19,620.05 Q 248.38,620.33 248.82,620.42 Q 253.01,621.22 257.26,621.68 Q 317.49,628.23 377.72,634.74 Q 381.60,635.16 382.87,631.66 Q 384.27,627.80 385.16,623.79 Q 385.87,620.61 382.75,619.96 Q 381.32,619.01 381.05,617.83 Q 380.64,616.00 378.76,616.00 Q 323.38,616.00 268.00,616.00 Q 263.36,616.00 258.75,616.54 Q 252.90,616.52 247.05,616.44 Q 246.82,616.44 246.61,616.37 Q 244.17,615.63 246.31,616.89 Q 246.50,617.00 246.71,617.01 Q 252.48,617.25 258.25,617.54 ZM 404.96,688.00 Q 411.09,693.78 420.00,693.50 Q 428.36,693.24 442.75,693.56 Q 449.52,693.72 455.84,693.04 A 1.98,1.98 6.2 0 0 457.52,691.69 Q 459.80,684.78 459.36,678.24 Q 459.17,675.56 456.25,675.71 Q 455.14,674.59 454.87,673.68 Q 454.30,671.75 452.27,671.74 L 420.77,671.69 A 1.09,0.76 -12.9 0 1 419.98,671.37 L 419.71,671.00 Q 420.20,670.05 420.25,669.75 Q 423.19,651.40 425.75,633.00 Q 426.31,628.99 426.45,626.73 Q 426.65,623.65 426.61,623.28 Q 426.37,621.19 424.00,620.46 Q 421.82,616.97 418.17,616.44 Q 416.79,616.24 411.81,616.52 Q 408.61,616.69 405.48,617.50 A 2.40,2.40 87.6 0 0 403.72,619.42 Q 400.26,639.70 397.43,660.24 Q 396.78,664.89 396.59,669.57 Q 396.35,675.07 397.88,678.71 Q 400.14,684.14 404.96,688.00 ZM 723.21,640.75 L 725.79,642.75 Q 725.51,643.57 724.50,643.50 Q 723.50,643.44 720.74,643.64 Q 717.22,643.91 716.31,647.31 Q 714.87,652.69 710.50,683.25 Q 709.94,687.18 710.62,690.03 A 1.75,1.20 21.7 0 0 711.15,690.82 L 714.29,693.50 Q 715.11,696.30 718.50,696.50 Q 725.06,696.89 731.02,695.83 Q 733.19,695.45 733.50,693.27 Q 736.44,672.20 739.71,651.19 Q 740.29,647.46 736.50,647.21 Q 735.96,646.13 734.99,645.45 A 1.07,0.66 25.4 0 1 734.50,644.69 Q 734.54,644.17 735.00,643.79 Q 743.55,640.52 745.50,632.75 Q 746.88,627.24 742.00,622.96 Q 739.64,619.69 736.25,617.89 Q 732.89,616.11 728.99,616.56 Q 720.95,617.48 717.31,625.53 Q 715.35,629.85 717.06,633.69 Q 718.84,637.69 723.21,640.75 ZM 560.04,693.50 Q 559.94,693.83 559.99,694.11 A 0.81,0.57 1.3 0 0 560.68,694.62 Q 568.12,695.50 575.50,694.54 Q 577.75,694.25 578.98,692.90 Q 580.20,691.56 581.31,689.56 Q 592.26,669.91 597.76,658.35 Q 599.96,653.72 603.44,648.19 Q 608.05,640.84 616.20,640.09 Q 617.10,640.00 620.29,640.33 Q 622.36,640.54 624.44,640.26 A 0.84,0.83 -84.1 0 0 625.11,639.71 Q 627.83,632.22 627.31,624.28 Q 627.24,623.30 626.80,622.84 Q 626.21,622.24 625.25,622.21 Q 623.91,621.54 623.15,619.82 A 2.57,2.57 80.7 0 0 621.04,618.30 Q 601.25,616.36 588.81,628.93 Q 584.44,633.35 577.94,645.39 Q 566.56,666.46 556.16,687.87 Q 555.11,690.01 557.47,690.38 Q 560.44,690.85 560.04,693.50 ZM 823.21,638.00 Q 823.24,636.23 823.86,634.58 Q 825.10,631.28 824.94,627.75 Q 824.83,625.42 822.75,624.46 Q 821.42,622.94 819.86,621.68 Q 818.36,620.48 816.27,620.24 Q 790.61,617.27 777.07,639.11 Q 767.61,654.37 764.31,662.06 Q 759.08,674.27 746.50,674.50 Q 743.81,674.55 741.95,675.36 Q 740.06,676.18 739.09,678.59 Q 737.06,683.63 737.96,690.33 A 2.18,2.17 3.2 0 0 739.58,692.14 Q 741.49,692.63 741.46,694.25 Q 741.74,696.25 743.50,696.25 Q 748.25,696.25 752.99,696.09 Q 769.86,695.53 779.94,682.19 Q 786.40,673.63 793.08,659.54 Q 795.57,654.30 796.88,652.28 Q 799.49,648.26 802.31,646.06 Q 809.59,640.39 819.75,642.96 Q 820.10,643.91 819.44,645.44 Q 808.39,670.91 829.00,688.79 Q 837.64,697.74 849.25,698.75 Q 870.24,700.58 885.12,687.75 Q 893.23,680.76 897.31,672.07 Q 903.66,658.54 898.69,643.06 Q 896.99,637.77 892.71,632.75 Q 886.90,625.65 879.05,621.76 Q 871.73,618.13 862.42,618.18 Q 839.07,618.30 824.19,637.69 Q 823.66,638.39 823.21,638.00 ZM 637.75,637.04 Q 638.68,641.18 642.58,640.67 Q 644.36,640.44 644.44,640.44 Q 656.62,639.68 668.75,641.04 Q 671.13,643.14 669.69,645.76 A 0.85,0.77 14.0 0 1 668.93,646.17 Q 657.97,645.87 647.00,645.93 Q 638.38,645.98 632.56,650.31 Q 624.93,655.99 622.36,665.19 Q 620.50,671.83 621.93,677.36 Q 623.54,683.63 629.00,688.04 Q 633.81,693.18 640.25,694.54 Q 642.42,695.00 652.77,695.20 Q 662.54,695.39 672.02,694.78 A 1.22,1.21 2.3 0 0 673.15,693.74 Q 674.11,686.83 675.10,680.67 Q 675.63,677.38 672.25,677.21 Q 670.72,675.91 670.58,673.94 A 0.57,0.55 88.8 0 0 670.05,673.42 Q 662.05,673.09 646.75,673.25 Q 645.68,673.26 645.46,672.00 Q 645.56,670.11 646.81,669.31 Q 649.67,667.49 653.36,667.61 Q 656.55,667.71 656.64,667.71 Q 665.58,667.53 674.50,668.21 Q 675.02,668.34 675.40,668.65 Q 675.72,668.91 675.89,669.48 Q 678.09,677.15 679.50,685.00 Q 680.37,689.84 684.25,692.79 Q 685.24,695.77 688.50,695.76 Q 694.88,695.75 703.24,695.75 A 1.53,1.52 2.5 0 0 704.76,694.36 Q 704.91,692.61 704.37,690.08 Q 699.43,666.91 694.50,643.75 Q 692.83,635.88 688.21,630.75 Q 682.30,623.67 676.94,621.06 Q 671.54,618.44 665.50,618.46 Q 652.25,618.50 638.33,618.50 Q 636.44,618.50 635.95,620.32 Q 635.21,623.08 634.64,626.34 Q 633.75,631.41 633.77,632.02 Q 633.85,635.63 637.75,637.04 ZM 900.75,694.54 Q 901.02,697.16 904.00,697.75 Q 906.44,698.23 908.15,698.41 Q 910.46,698.64 912.34,698.64 Q 919.45,698.65 921.00,691.25 Q 922.70,683.11 924.03,672.13 Q 924.66,666.85 925.25,663.90 Q 926.24,658.93 927.31,655.81 Q 929.32,649.97 934.05,646.05 Q 942.30,639.20 952.50,642.79 Q 954.09,643.82 954.44,644.56 Q 957.38,650.91 956.25,658.75 Q 952.98,681.46 951.50,689.75 Q 950.72,694.14 954.75,694.54 Q 955.00,698.50 958.55,698.58 Q 960.85,698.62 960.95,698.63 Q 964.52,698.96 968.08,698.65 Q 968.18,698.64 970.92,698.63 Q 974.60,698.60 975.19,694.44 Q 975.86,689.66 979.89,664.18 Q 981.31,655.13 980.75,649.50 Q 979.72,639.24 971.50,631.21 Q 962.22,621.05 948.75,619.75 Q 925.47,617.50 911.12,635.63 Q 905.01,643.36 903.00,655.00 Q 898.54,680.90 897.37,690.95 A 1.70,1.39 -60.6 0 0 897.53,691.88 Q 898.56,693.78 900.75,694.54 ZM 288.25,645.46 L 272.76,645.74 A 0.65,0.51 15.6 0 0 272.30,645.93 Q 272.04,646.21 272.53,646.28 Q 321.53,652.87 370.49,659.79 Q 373.42,660.20 375.58,659.67 Q 377.65,659.15 377.75,657.02 Q 377.92,653.09 378.49,649.22 Q 378.76,647.40 378.50,646.66 Q 377.91,644.96 375.50,645.71 Q 375.54,643.76 374.29,642.41 A 1.54,1.27 -12.6 0 0 373.44,641.98 Q 370.53,641.52 365.25,641.50 Q 317.29,641.34 269.33,641.75 A 0.62,0.39 6.8 0 0 268.80,642.00 Q 268.69,642.28 269.27,642.35 Q 277.93,643.45 286.58,644.62 Q 286.80,644.65 287.54,644.51 Q 288.27,644.37 288.25,645.46 ZM 322.54,671.00 Q 322.16,672.28 323.33,672.63 Q 344.77,679.01 367.70,685.67 Q 369.62,686.23 370.18,684.31 Q 371.48,679.83 372.81,674.01 Q 373.42,671.31 371.00,670.96 Q 368.96,669.93 367.88,667.53 A 1.33,1.32 78.0 0 0 366.69,666.75 Q 343.12,666.67 320.50,666.75 Q 318.93,666.76 318.79,667.68 A 0.72,0.67 14.4 0 0 319.26,668.41 L 322.01,669.39 A 0.72,0.65 9.4 0 1 322.49,669.99 L 322.54,671.00 ZM 929.72,798.94 Q 928.50,798.94 929.42,798.14 Q 936.82,791.69 943.29,784.88 Q 948.13,779.79 949.96,776.51 Q 952.77,771.45 953.00,766.00 Q 953.41,756.51 946.88,750.68 Q 942.92,747.14 937.30,745.79 Q 931.93,744.50 926.24,745.43 Q 916.65,746.98 908.96,753.86 A 1.10,1.08 -39.3 0 0 908.80,755.32 L 914.44,762.85 A 0.83,0.82 -40.5 0 0 915.68,762.94 Q 921.29,757.52 928.61,757.19 Q 931.99,757.03 934.26,758.11 Q 937.27,759.53 938.25,762.75 Q 940.15,769.00 935.76,774.71 Q 934.02,776.97 931.99,778.99 Q 921.96,788.97 911.60,798.53 Q 910.28,799.75 910.30,801.36 L 910.40,810.30 A 0.59,0.56 2.8 0 0 910.94,810.86 Q 914.89,811.28 916.25,811.25 Q 935.50,810.86 955.57,811.01 A 0.68,0.68 45.0 0 0 956.25,810.33 L 956.25,799.55 A 0.56,0.55 0.0 0 0 955.69,799.00 L 929.72,798.94 ZM 997.57,776.90 Q 1004.19,774.20 1006.46,766.29 Q 1008.45,759.38 1004.94,754.06 Q 999.73,746.20 989.49,745.34 Q 975.30,744.15 964.45,752.99 A 0.63,0.56 -35.9 0 0 964.28,753.76 L 969.64,762.16 A 0.52,0.49 -37.7 0 0 970.41,762.23 Q 976.06,757.15 983.61,757.10 Q 987.06,757.07 989.23,758.15 Q 992.31,759.67 992.92,763.07 Q 993.53,766.44 991.64,769.14 Q 989.69,771.93 985.82,772.61 Q 982.32,773.23 977.97,772.95 A 0.91,0.91 1.8 0 0 977.00,773.86 L 977.00,783.12 A 0.97,0.97 87.6 0 0 978.05,784.09 Q 984.42,783.59 989.69,785.01 Q 992.65,785.81 994.12,787.56 Q 996.00,789.81 995.82,792.76 Q 995.62,795.89 993.44,798.11 Q 991.22,800.38 987.75,800.75 Q 977.43,801.86 968.91,795.80 A 0.51,0.49 35.0 0 0 968.21,795.91 L 963.07,803.52 A 1.35,1.33 35.4 0 0 963.39,805.34 Q 976.76,815.33 993.00,812.00 Q 1002.91,809.97 1007.19,802.78 Q 1011.22,795.99 1008.92,788.82 Q 1006.53,781.41 997.58,777.89 Q 996.34,777.40 997.57,776.90 ZM 517.60,797.79 L 522.45,810.49 A 0.82,0.80 -10.5 0 0 523.21,811.00 L 537.04,811.00 A 0.48,0.48 78.8 0 0 537.48,810.34 L 511.75,747.65 A 0.80,0.75 78.5 0 0 511.06,747.16 L 498.06,747.03 A 1.47,1.40 -77.9 0 0 496.73,747.94 L 471.26,810.18 A 0.60,0.59 -79.0 0 0 471.81,811.00 L 484.86,811.00 A 1.27,1.24 -79.4 0 0 486.03,810.18 L 490.81,797.71 A 0.77,0.76 9.4 0 1 491.49,797.23 Q 504.21,796.61 516.93,797.28 A 0.79,0.75 80.9 0 1 517.60,797.79 ZM 561.03,769.04 L 591.07,810.58 A 1.03,1.00 -17.2 0 0 591.90,811.00 L 603.44,811.00 A 0.81,0.81 -45.0 0 0 604.25,810.19 L 604.19,747.56 A 0.51,0.50 90.0 0 0 603.69,747.05 L 591.07,747.05 A 0.51,0.51 -0.0 0 0 590.56,747.56 L 590.44,788.71 Q 590.44,790.14 589.60,788.98 L 559.99,748.28 A 3.11,3.08 71.8 0 0 557.49,747.00 L 546.75,747.00 A 0.50,0.50 45.0 0 0 546.25,747.50 L 546.25,810.45 A 0.53,0.50 89.5 0 0 546.76,810.98 L 559.50,810.78 A 0.53,0.51 90.0 0 0 560.01,810.25 L 560.25,769.29 Q 560.25,767.97 561.03,769.04 ZM 633.03,769.04 L 663.07,810.58 A 1.03,1.00 -17.2 0 0 663.90,811.00 L 675.44,811.00 A 0.81,0.81 -45.0 0 0 676.25,810.19 L 676.19,747.56 A 0.52,0.51 0.6 0 0 675.68,747.05 L 663.03,747.00 A 0.52,0.52 0.0 0 0 662.51,747.52 L 662.43,788.83 Q 662.43,790.09 661.69,789.07 L 631.79,748.01 A 2.39,2.29 71.2 0 0 629.88,747.02 L 618.82,747.05 A 0.51,0.51 -0.0 0 0 618.31,747.56 L 618.31,810.44 A 0.52,0.50 89.5 0 0 618.82,810.96 L 631.49,810.78 A 0.53,0.52 90.0 0 0 632.01,810.25 L 632.25,769.29 Q 632.25,767.97 633.03,769.04 ZM 705.30,797.29 Q 717.99,796.56 730.68,797.28 A 0.81,0.77 -8.3 0 1 731.38,797.77 L 736.27,810.25 A 1.19,1.15 78.7 0 0 737.35,811.00 L 751.18,811.00 A 0.39,0.39 78.9 0 0 751.54,810.46 L 725.75,747.65 A 0.80,0.75 78.5 0 0 725.06,747.16 L 711.94,747.03 A 1.39,1.31 -77.8 0 0 710.69,747.89 L 685.16,810.26 A 0.54,0.53 -78.8 0 0 685.65,811.00 L 698.61,811.00 A 1.37,1.32 10.4 0 0 699.87,810.16 L 704.65,797.79 A 0.78,0.71 -79.9 0 1 705.30,797.29 ZM 800.57,777.11 Q 799.49,776.74 800.49,776.19 Q 804.32,774.06 806.25,770.74 Q 808.06,767.62 807.97,763.35 Q 807.83,756.84 803.17,752.45 Q 800.86,750.28 797.28,748.86 Q 793.70,747.44 790.50,747.25 Q 779.05,746.58 760.94,747.17 A 0.53,0.52 -1.1 0 0 760.43,747.69 L 760.25,810.48 A 0.52,0.52 0.0 0 0 760.77,811.00 Q 774.88,811.00 788.00,811.02 Q 793.46,811.02 798.74,809.73 Q 810.54,806.83 811.45,794.75 Q 812.48,781.18 800.57,777.11 ZM 861.60,797.78 L 866.53,810.53 A 0.79,0.73 -9.7 0 0 867.25,811.00 L 881.12,811.00 A 0.35,0.35 -10.7 0 0 881.45,810.52 L 855.75,747.65 A 0.78,0.75 79.4 0 0 855.06,747.16 L 842.06,747.03 A 1.47,1.40 -77.9 0 0 840.73,747.94 L 815.26,810.18 A 0.60,0.59 -79.0 0 0 815.81,811.00 L 828.86,811.00 A 1.30,1.24 -79.0 0 0 830.03,810.17 L 834.81,797.71 A 0.77,0.76 9.4 0 1 835.49,797.23 Q 848.21,796.61 860.93,797.28 A 0.78,0.76 80.9 0 1 861.60,797.78 Z"/>
<path fill="#f46703" d="M 621.50,419.04 Q 642.31,422.56 655.71,438.75 Q 657.78,440.01 658.75,442.21 Q 656.54,441.71 657.21,443.50 Q 656.00,440.01 652.56,439.61 Q 652.05,439.55 652.31,439.99 Q 654.19,443.21 655.91,446.53 Q 656.83,448.31 657.27,450.82 Q 657.66,453.07 658.32,455.26 Q 659.27,458.43 659.26,460.89 Q 659.26,467.09 658.93,473.28 Q 658.85,474.78 657.90,479.10 Q 657.08,482.84 657.75,486.75 Q 657.98,488.10 657.25,492.94 Q 656.81,495.84 655.40,498.80 Q 653.80,502.17 652.27,505.57 Q 650.59,509.31 648.73,512.15 Q 642.33,521.92 634.88,530.90 Q 632.59,533.66 627.58,538.58 Q 623.80,542.30 620.32,546.31 Q 616.66,550.52 614.69,552.22 Q 611.57,554.89 608.06,557.06 Q 602.39,560.56 596.98,564.46 Q 591.10,568.71 586.19,570.44 Q 578.69,573.08 567.15,575.62 Q 566.55,575.75 564.39,576.66 Q 563.22,577.16 561.47,577.49 A 2.18,2.15 12.9 0 0 560.19,578.28 Q 558.15,580.94 560.75,580.79 Q 553.02,581.72 536.06,581.81 Q 509.81,581.96 483.56,581.31 Q 482.97,581.30 480.79,582.00 Q 480.05,581.68 479.27,581.45 Q 478.71,581.28 477.70,581.34 Q 475.09,581.49 476.07,579.09 Q 476.47,578.10 476.50,578.02 Q 484.80,554.18 493.54,530.50 Q 496.58,523.73 498.21,516.50 L 516.29,467.00 L 518.54,460.50 Q 525.66,440.78 532.81,421.06 Q 533.62,418.82 537.26,418.66 Q 564.69,417.45 602.25,418.00 Q 614.39,418.18 621.50,419.04 ZM 535.46,539.75 Q 535.79,540.94 536.78,540.68 Q 537.44,540.51 537.74,540.53 Q 553.24,541.53 568.73,540.57 Q 573.98,540.25 577.72,539.55 Q 583.32,538.50 586.44,536.94 Q 604.55,527.88 614.81,509.31 Q 618.27,503.06 619.54,498.75 Q 620.68,496.10 620.71,493.25 Q 622.73,485.78 621.50,477.75 Q 620.57,471.64 616.50,467.46 Q 616.10,466.00 614.50,466.04 L 611.21,464.25 Q 613.56,463.33 611.06,462.19 Q 604.74,459.31 600.01,458.91 Q 594.14,458.42 588.25,458.49 Q 577.37,458.60 566.50,458.25 Q 562.49,458.12 559.81,460.15 Q 557.91,461.59 556.46,465.68 Q 544.85,498.56 533.01,531.37 Q 532.69,532.27 531.94,535.36 Q 531.45,537.38 530.49,539.27 A 0.94,0.94 21.3 0 0 531.08,540.60 Q 533.43,541.27 535.46,539.75 Z"/>
<path fill="#f46703" d="M 847.25,422.21 Q 845.63,422.42 844.38,423.42 A 1.64,0.80 -86.5 0 0 843.92,424.24 L 842.54,429.25 Q 843.04,427.05 842.14,428.17 Q 841.95,428.41 841.83,428.76 Q 838.64,438.35 835.50,447.96 Q 828.34,470.00 820.12,491.66 Q 818.22,496.69 815.25,505.47 Q 812.90,512.42 810.18,519.22 Q 808.52,523.36 806.54,530.01 Q 804.51,536.80 801.46,543.25 Q 799.31,547.76 796.81,554.56 Q 795.86,557.15 795.79,559.25 L 788.33,579.29 Q 787.57,581.34 785.42,581.47 Q 774.16,582.18 763.25,581.81 Q 763.20,581.80 760.24,581.83 Q 757.15,581.85 754.25,580.75 Q 751.49,579.70 751.50,577.00 Q 751.51,573.37 753.08,570.21 Q 754.59,567.15 754.62,567.07 Q 758.57,557.73 761.92,548.15 Q 762.43,546.68 763.84,543.44 Q 764.86,541.10 765.56,538.65 Q 766.86,534.13 767.76,531.36 Q 769.16,527.04 769.71,522.50 Q 770.15,520.97 769.00,520.75 Q 765.78,520.13 761.65,520.38 Q 756.44,520.70 754.34,520.63 Q 734.03,520.01 713.71,519.78 Q 709.57,519.74 707.49,520.83 Q 704.41,522.43 703.00,525.75 Q 701.44,529.41 697.78,540.30 Q 691.68,558.42 684.56,576.15 Q 683.72,578.22 683.07,579.09 Q 681.84,580.74 680.25,581.00 Q 675.12,581.83 665.06,581.97 Q 665.03,581.97 657.44,581.75 Q 652.98,581.63 648.54,582.25 Q 648.45,580.79 646.75,581.25 Q 643.52,582.13 644.50,579.00 Q 649.85,561.93 656.29,545.25 L 661.29,531.75 L 669.04,509.75 L 670.71,505.25 Q 672.86,497.57 676.04,490.25 Q 677.55,488.08 678.04,485.50 L 680.04,479.75 L 683.04,471.50 Q 683.38,470.67 683.29,469.75 Q 685.01,467.71 685.29,465.00 Q 685.23,463.10 686.06,461.54 Q 687.19,459.43 687.23,459.34 Q 688.44,456.39 689.66,453.44 Q 689.98,452.66 690.38,450.45 Q 690.65,448.90 691.54,447.50 Q 693.08,445.08 693.54,442.25 Q 695.36,436.99 701.19,423.19 Q 702.61,419.82 705.50,419.04 L 709.25,418.54 Q 723.53,417.96 738.85,418.74 A 1.67,1.67 87.0 0 1 740.41,420.15 Q 740.73,422.26 742.25,422.71 Q 740.38,422.66 739.75,424.25 Q 736.46,432.52 732.21,444.68 Q 732.18,444.77 731.34,447.72 Q 730.81,449.57 729.69,451.94 Q 727.98,455.54 726.71,460.19 Q 725.27,465.47 724.14,468.54 Q 722.53,472.90 721.06,477.31 Q 719.95,480.67 722.69,479.69 Q 724.42,479.06 725.46,477.50 Q 725.24,478.36 725.49,479.11 A 0.75,0.65 -8.0 0 0 726.18,479.56 Q 746.09,479.46 766.01,479.49 Q 766.49,479.49 773.49,479.76 Q 777.24,479.91 781.01,479.57 Q 784.29,479.27 785.51,476.22 Q 795.37,451.54 803.59,426.28 Q 804.56,423.30 805.81,421.03 Q 807.25,418.41 810.23,418.25 Q 827.63,417.34 844.13,418.20 A 1.04,1.03 -85.1 0 1 845.10,419.36 Q 844.76,422.27 847.25,422.21 Z"/>
<path fill="#f46703" d="M 984.00,440.71 Q 983.20,440.66 982.51,440.96 A 0.44,0.40 60.7 0 0 982.36,441.60 Q 986.13,446.97 988.31,455.19 Q 991.48,467.12 990.56,477.26 Q 990.35,479.59 990.17,481.93 Q 989.98,484.46 989.51,486.54 Q 982.55,517.54 960.56,539.56 Q 959.25,540.88 958.46,542.04 Q 957.24,543.85 956.50,544.51 Q 952.26,548.30 941.81,557.06 Q 934.87,562.88 929.00,566.04 Q 924.82,567.36 921.15,569.70 Q 920.19,570.31 918.02,571.29 Q 916.38,572.03 915.04,573.25 L 912.96,574.00 Q 908.01,574.96 903.50,577.21 Q 888.59,581.94 873.09,581.80 Q 859.47,581.67 859.40,581.67 Q 835.07,582.21 810.74,581.52 Q 810.67,581.52 809.29,581.35 Q 807.56,581.14 806.29,582.50 Q 805.85,580.91 803.12,580.64 A 0.93,0.89 -77.5 0 1 802.38,579.42 L 805.29,571.00 Q 806.08,570.85 806.22,570.00 Q 806.70,567.04 807.79,564.25 Q 808.43,563.37 808.54,562.25 L 810.04,557.50 L 819.29,531.75 Q 820.51,530.24 820.54,528.25 L 824.04,518.75 Q 825.53,516.20 826.00,513.29 L 844.29,463.75 L 846.79,456.50 Q 851.28,442.84 856.18,429.32 Q 858.74,422.26 859.51,421.22 Q 862.12,417.69 867.37,417.89 Q 870.03,417.99 870.14,417.99 Q 917.56,417.60 942.00,418.50 Q 968.01,419.46 984.00,440.71 ZM 861.46,539.25 L 861.71,540.75 Q 861.35,541.76 862.50,542.00 Q 863.29,542.17 866.62,542.39 Q 866.73,542.40 869.83,542.89 Q 871.84,543.21 873.75,542.56 Q 876.26,541.71 877.43,541.65 Q 882.34,541.44 887.25,541.46 Q 897.58,541.55 907.50,538.71 L 913.50,536.54 Q 917.55,534.89 921.06,532.39 Q 921.35,532.18 926.13,528.89 Q 929.07,526.87 931.42,524.14 A 0.85,0.62 57.4 0 0 931.47,523.33 Q 931.21,522.72 931.87,522.29 Q 932.36,521.97 932.58,521.63 Q 934.06,519.31 936.28,517.72 Q 936.67,517.44 936.90,516.99 Q 937.75,515.28 940.31,511.56 Q 941.91,509.24 942.79,504.75 L 943.75,503.96 Q 946.58,499.52 946.46,494.25 Q 948.33,486.29 946.75,476.25 Q 945.72,469.68 941.25,466.29 Q 942.34,464.85 940.69,463.81 Q 930.90,457.64 919.50,458.25 Q 913.32,458.58 890.50,458.25 Q 886.15,458.19 884.50,462.04 Q 882.08,467.66 880.27,473.51 Q 878.98,477.65 877.37,481.67 Q 876.08,484.89 874.84,489.55 Q 873.69,493.86 871.69,498.69 Q 863.10,519.36 856.50,540.77 A 0.53,0.53 -76.4 0 0 856.92,541.46 Q 859.96,541.95 861.46,539.25 Z"/>
<path fill="#fbe2bc" d="M 70.75,419.04 Q 65.78,419.96 63.72,423.77 Q 62.80,425.47 61.41,431.28 Q 57.59,447.26 68.06,460.44 Q 70.16,463.07 76.50,468.46 Q 75.07,468.86 74.24,467.96 Q 73.82,467.51 73.49,467.35 Q 68.96,465.14 65.79,461.38 Q 63.11,458.21 61.64,456.14 Q 59.72,453.42 58.75,450.00 Q 56.01,440.34 57.81,430.81 Q 57.98,429.91 59.10,429.04 A 1.26,1.19 -16.0 0 0 59.57,428.25 Q 60.02,425.06 60.75,424.00 Q 62.15,421.96 66.33,419.04 A 1.56,1.15 -53.5 0 1 67.25,418.76 L 70.75,419.04 Z"/>
<path fill="#dd6c1c" d="M 519.25,422.71 Q 518.75,423.38 518.17,423.98 Q 517.53,424.63 517.26,425.34 Q 515.41,430.22 514.01,435.25 Q 513.84,435.84 513.45,436.25 Q 513.01,436.70 512.89,437.03 Q 485.18,509.91 457.19,582.69 Q 455.08,588.17 450.52,589.31 Q 450.19,589.39 441.96,589.62 Q 418.78,590.26 414.00,590.25 Q 349.62,590.16 285.24,590.45 Q 275.70,590.50 265.25,590.37 Q 245.50,590.13 240.50,590.25 Q 232.42,590.45 228.54,590.36 Q 224.01,590.25 223.94,590.25 Q 199.97,590.25 176.00,590.28 Q 163.71,590.30 153.13,584.31 A 0.56,0.43 -56.4 0 0 152.51,584.52 Q 152.27,584.85 151.75,584.79 Q 137.30,572.53 138.75,553.25 A 0.94,0.94 -75.8 0 0 138.20,552.32 Q 130.81,549.00 124.31,544.19 Q 123.57,543.64 123.29,542.55 A 1.80,1.37 -83.5 0 0 122.81,541.74 Q 115.44,535.18 114.13,525.27 Q 113.42,519.91 113.21,513.36 A 1.14,1.14 -81.6 0 0 112.43,512.31 Q 101.53,508.69 94.13,499.38 Q 87.75,491.36 87.26,481.01 Q 87.10,477.51 87.25,473.94 A 1.67,1.65 -82.8 0 0 85.94,472.24 Q 80.92,471.15 76.50,468.46 Q 70.16,463.07 68.06,460.44 Q 57.59,447.26 61.41,431.28 Q 62.80,425.47 63.72,423.77 Q 65.78,419.96 70.75,419.04 Q 71.69,419.11 72.59,418.96 Q 73.86,418.75 74.42,418.74 Q 172.73,418.14 256.75,418.75 Q 258.56,418.76 259.92,418.67 Q 262.35,418.50 263.08,418.50 Q 355.91,418.50 448.75,418.62 Q 483.35,418.67 517.94,418.56 A 0.49,0.49 -89.4 0 1 518.43,419.06 Q 518.42,420.17 518.30,421.29 Q 518.24,421.87 518.44,422.17 Q 518.71,422.57 519.25,422.71 ZM 78.71,452.75 Q 82.46,456.84 89.00,457.75 Q 98.08,459.01 103.50,458.95 Q 146.00,458.50 188.50,458.74 Q 221.13,458.92 253.86,458.50 Q 255.46,458.48 254.39,457.28 Q 245.00,446.76 235.31,436.69 Q 233.35,434.65 232.25,434.21 Q 231.90,431.51 229.75,431.25 Q 220.43,430.11 206.50,430.97 Q 204.99,431.06 203.49,430.93 Q 201.38,430.75 200.50,430.75 Q 143.41,430.93 86.33,430.27 Q 86.20,430.27 83.18,430.13 Q 78.66,429.93 74.76,431.40 Q 72.90,432.09 72.56,434.05 Q 70.90,443.69 76.53,451.46 Q 77.35,452.59 78.71,452.75 ZM 253.25,434.46 Q 252.13,434.61 252.80,435.76 Q 253.20,436.44 253.73,437.03 Q 291.74,479.08 329.25,520.23 Q 331.10,522.26 333.05,522.57 Q 336.92,523.19 341.19,520.69 Q 382.89,496.26 424.21,471.19 Q 432.09,466.41 441.39,460.95 Q 462.24,448.71 482.87,436.08 Q 483.40,435.76 483.63,435.39 Q 484.28,434.33 482.50,434.46 Q 485.77,434.53 487.21,432.01 A 0.31,0.30 14.4 0 0 486.94,431.56 Q 412.42,431.54 369.25,431.75 Q 301.21,432.08 249.32,431.82 Q 248.79,431.81 249.14,432.20 Q 250.75,433.98 253.25,434.46 ZM 425.50,482.04 Q 422.99,483.01 419.31,485.56 Q 414.04,489.23 396.25,498.75 Q 395.13,499.35 394.79,500.75 Q 393.36,501.85 395.04,506.18 Q 395.69,507.85 397.46,507.54 Q 398.03,507.44 397.96,505.50 Q 398.22,508.52 400.14,510.85 Q 424.30,540.07 448.95,569.94 A 0.78,0.77 -52.3 0 0 450.25,569.77 Q 454.74,560.11 458.73,549.45 Q 475.63,504.31 492.74,459.24 Q 495.85,451.04 497.50,447.75 Q 498.24,446.27 496.75,446.21 Q 498.82,443.59 499.83,440.75 Q 500.31,439.39 498.90,439.71 Q 496.02,440.38 493.59,441.77 Q 479.05,450.16 464.79,459.00 Q 456.87,463.91 447.55,469.13 Q 436.39,475.36 425.50,482.04 ZM 105.00,491.71 Q 106.72,494.80 109.75,495.75 Q 114.93,497.38 121.51,497.58 Q 157.08,498.70 192.67,498.08 Q 200.35,497.94 200.81,498.01 Q 205.17,498.66 208.25,502.21 Q 207.57,502.23 207.50,502.75 Q 206.82,507.72 203.09,509.66 Q 201.04,510.74 195.72,510.80 Q 163.36,511.19 131.00,510.39 Q 125.58,510.26 125.25,516.00 Q 124.73,525.06 129.56,531.19 Q 130.51,532.39 131.25,531.71 Q 132.95,534.41 135.06,535.44 Q 138.19,536.96 142.12,537.61 Q 144.46,537.99 149.42,538.04 Q 182.63,538.40 226.69,538.19 Q 232.91,538.16 238.26,535.87 Q 240.27,535.01 248.28,530.07 Q 254.66,526.13 263.06,520.56 Q 270.76,515.46 285.06,506.81 Q 288.39,504.80 290.26,502.86 Q 291.81,501.24 291.70,499.62 Q 291.58,497.83 289.94,496.06 Q 280.11,485.49 270.21,475.00 Q 270.52,474.04 269.44,473.31 Q 265.22,470.48 260.50,470.34 Q 251.16,470.06 241.82,470.23 Q 227.11,470.48 223.16,470.48 Q 190.71,470.41 158.25,470.54 Q 139.25,470.61 120.25,470.23 Q 107.51,469.98 104.50,470.50 Q 99.20,471.41 99.25,477.00 Q 99.32,485.13 103.55,491.45 Q 104.75,493.25 105.00,491.71 ZM 205.75,566.79 Q 204.67,565.85 203.63,564.88 Q 200.35,561.81 203.64,558.65 Q 205.63,556.74 207.69,554.91 Q 208.01,554.62 207.99,554.35 Q 207.98,553.97 207.50,553.79 Q 208.94,553.44 210.35,552.97 Q 210.90,552.79 211.13,552.44 Q 211.47,551.92 211.26,551.42 A 0.88,0.64 -6.7 0 0 210.50,550.99 Q 184.90,550.55 159.29,550.50 Q 159.18,550.50 157.73,550.44 Q 154.87,550.32 152.88,551.83 Q 150.88,553.34 150.74,556.50 Q 150.56,560.77 152.25,566.00 Q 153.63,570.27 156.75,571.46 Q 158.56,574.04 160.81,574.94 Q 168.63,578.06 177.72,577.87 Q 182.70,577.76 182.79,577.76 Q 258.40,578.10 334.00,578.01 Q 341.41,578.00 354.01,578.15 Q 373.00,578.38 392.00,578.09 Q 406.63,577.88 421.25,578.15 Q 428.27,578.28 435.26,577.50 Q 436.94,577.31 435.89,576.00 L 414.50,549.46 Q 401.55,532.53 387.79,516.25 Q 386.79,514.82 385.25,513.96 L 385.38,513.52 A 0.97,0.75 35.4 0 0 385.14,512.72 Q 381.27,508.50 375.69,511.69 Q 352.83,524.75 338.06,534.56 Q 334.49,536.93 331.46,537.21 Q 331.40,537.22 330.08,537.06 Q 329.06,536.94 328.50,538.04 Q 318.33,527.68 308.74,516.76 Q 307.00,514.78 304.71,513.50 L 304.91,512.98 A 0.73,0.46 -65.3 0 0 304.81,512.22 L 301.20,509.73 A 1.15,0.88 -32.5 0 0 300.28,509.65 Q 297.80,510.48 293.31,513.31 Q 258.98,534.97 224.72,556.73 Q 218.70,560.55 210.27,565.11 A 5.10,5.08 32.8 0 1 207.47,565.71 Q 206.59,565.65 205.75,566.79 Z"/>
<path fill="#ecc792" d="M 709.25,418.54 L 705.50,419.04 L 703.80,418.93 Q 702.89,418.87 703.80,418.74 Q 706.51,418.34 709.25,418.54 Z"/>
<path fill="#fbe2bc" d="M 621.50,419.04 Q 624.23,418.96 626.95,419.00 Q 629.65,419.03 632.20,420.11 Q 637.59,422.38 640.56,423.94 Q 648.41,428.04 654.15,435.63 Q 654.18,435.67 655.12,436.61 Q 655.92,437.42 655.71,438.75 Q 642.31,422.56 621.50,419.04 Z"/>
<path fill="#493019" d="M 847.25,422.21 Q 848.62,422.00 849.09,423.02 A 1.41,0.96 -55.8 0 1 849.09,423.97 Q 814.90,522.46 792.44,581.94 Q 791.33,584.88 787.25,584.91 Q 775.75,584.99 764.25,585.00 Q 757.67,585.00 756.77,584.80 Q 752.74,583.87 750.58,579.68 Q 749.31,577.22 750.30,574.56 Q 759.02,550.87 767.25,527.00 Q 768.21,524.22 768.00,523.04 L 769.71,522.50 Q 769.16,527.04 767.76,531.36 Q 766.86,534.13 765.56,538.65 Q 764.86,541.10 763.84,543.44 Q 762.43,546.68 761.92,548.15 Q 758.57,557.73 754.62,567.07 Q 754.59,567.15 753.08,570.21 Q 751.51,573.37 751.50,577.00 Q 751.49,579.70 754.25,580.75 Q 757.15,581.85 760.24,581.83 Q 763.20,581.80 763.25,581.81 Q 774.16,582.18 785.42,581.47 Q 787.57,581.34 788.33,579.29 L 795.79,559.25 Q 799.51,551.56 801.46,543.25 Q 804.51,536.80 806.54,530.01 Q 808.52,523.36 810.18,519.22 Q 812.90,512.42 815.25,505.47 Q 818.22,496.69 820.12,491.66 Q 828.34,470.00 835.50,447.96 Q 836.38,448.06 836.81,447.06 Q 840.88,437.64 842.54,429.25 L 843.92,424.24 A 1.64,0.80 -86.5 0 1 844.38,423.42 Q 845.63,422.42 847.25,422.21 Z"/>
<path fill="#422813" d="M 519.25,422.71 Q 520.96,422.66 522.49,423.34 A 0.57,0.54 -67.5 0 1 522.76,424.04 Q 492.09,504.78 461.19,585.44 Q 459.94,588.70 458.30,590.87 Q 457.07,592.51 454.91,592.92 Q 452.86,593.32 450.75,593.31 Q 380.75,593.25 310.75,593.00 Q 301.50,592.97 292.25,593.02 Q 211.57,593.50 173.25,593.00 Q 161.48,592.85 151.75,584.79 Q 152.27,584.85 152.51,584.52 A 0.56,0.43 -56.4 0 1 153.13,584.31 Q 163.71,590.30 176.00,590.28 Q 199.97,590.25 223.94,590.25 Q 224.01,590.25 228.54,590.36 Q 232.42,590.45 240.50,590.25 Q 245.50,590.13 265.25,590.37 Q 275.70,590.50 285.24,590.45 Q 349.62,590.16 414.00,590.25 Q 418.78,590.26 441.96,589.62 Q 450.19,589.39 450.52,589.31 Q 455.08,588.17 457.19,582.69 Q 485.18,509.91 512.89,437.03 Q 513.01,436.70 513.45,436.25 Q 513.84,435.84 514.01,435.25 Q 515.41,430.22 517.26,425.34 Q 517.53,424.63 518.17,423.98 Q 518.75,423.38 519.25,422.71 Z"/>
<path fill="#493019" d="M 742.25,422.71 L 744.71,423.17 A 0.48,0.42 -74.4 0 1 745.01,423.79 L 725.46,477.50 Q 724.42,479.06 722.69,479.69 Q 719.95,480.67 721.06,477.31 Q 722.53,472.90 724.14,468.54 Q 725.27,465.47 726.71,460.19 Q 727.98,455.54 729.69,451.94 Q 730.81,449.57 731.34,447.72 Q 732.18,444.77 732.21,444.68 Q 736.46,432.52 739.75,424.25 Q 740.38,422.66 742.25,422.71 Z"/>
<path fill="#884b1e" d="M 842.54,429.25 Q 840.88,437.64 836.81,447.06 Q 836.38,448.06 835.50,447.96 Q 838.64,438.35 841.83,428.76 Q 841.95,428.41 842.14,428.17 Q 843.04,427.05 842.54,429.25 Z"/>
<path fill="#452408" d="M 232.25,434.21 Q 229.00,433.78 222.25,433.75 Q 152.84,433.45 117.50,433.76 Q 111.19,433.81 101.25,433.50 Q 92.46,433.22 82.07,433.88 Q 79.58,434.04 78.53,434.58 Q 76.66,435.55 76.25,437.75 Q 74.81,445.40 78.71,452.75 Q 77.35,452.59 76.53,451.46 Q 70.90,443.69 72.56,434.05 Q 72.90,432.09 74.76,431.40 Q 78.66,429.93 83.18,430.13 Q 86.20,430.27 86.33,430.27 Q 143.41,430.93 200.50,430.75 Q 201.38,430.75 203.49,430.93 Q 204.99,431.06 206.50,430.97 Q 220.43,430.11 229.75,431.25 Q 231.90,431.51 232.25,434.21 Z"/>
<path fill="#170d02" d="M 482.50,434.46 Q 377.88,434.31 273.25,434.46 Q 263.25,434.48 253.25,434.46 Q 250.75,433.98 249.14,432.20 Q 248.79,431.81 249.32,431.82 Q 301.21,432.08 369.25,431.75 Q 412.42,431.54 486.94,431.56 A 0.31,0.30 14.4 0 1 487.21,432.01 Q 485.77,434.53 482.50,434.46 ZM 460.39,432.33 Q 460.65,431.17 458.23,431.65 A 0.93,0.83 2.6 0 0 457.54,432.21 Q 457.33,432.82 457.41,433.51 A 0.87,0.86 -82.6 0 0 457.94,434.21 Q 459.25,434.74 459.79,433.81 Q 460.22,433.07 460.39,432.33 Z"/>
<path fill="#2b1809" d="M 459.79,433.81 Q 459.25,434.74 457.94,434.21 A 0.87,0.86 -82.6 0 1 457.41,433.51 Q 457.33,432.82 457.54,432.21 A 0.93,0.83 2.6 0 1 458.23,431.65 Q 460.65,431.17 460.39,432.33 Q 460.22,433.07 459.79,433.81 Z"/>
<path fill="#ffffff" d="M 232.25,434.21 Q 233.35,434.65 235.31,436.69 Q 245.00,446.76 254.39,457.28 Q 255.46,458.48 253.86,458.50 Q 221.13,458.92 188.50,458.74 Q 146.00,458.50 103.50,458.95 Q 98.08,459.01 89.00,457.75 Q 82.46,456.84 78.71,452.75 Q 74.81,445.40 76.25,437.75 Q 76.66,435.55 78.53,434.58 Q 79.58,434.04 82.07,433.88 Q 92.46,433.22 101.25,433.50 Q 111.19,433.81 117.50,433.76 Q 152.84,433.45 222.25,433.75 Q 229.00,433.78 232.25,434.21 Z"/>
<path fill="#ffffff" d="M 482.50,434.46 Q 484.28,434.33 483.63,435.39 Q 483.40,435.76 482.87,436.08 Q 462.24,448.71 441.39,460.95 Q 432.09,466.41 424.21,471.19 Q 382.89,496.26 341.19,520.69 Q 336.92,523.19 333.05,522.57 Q 331.10,522.26 329.25,520.23 Q 291.74,479.08 253.73,437.03 Q 253.20,436.44 252.80,435.76 Q 252.13,434.61 253.25,434.46 Q 263.25,434.48 273.25,434.46 Q 377.88,434.31 482.50,434.46 Z"/>
<path fill="#d96e26" d="M 657.21,443.50 Q 662.87,452.27 664.00,462.25 Q 664.87,469.92 663.97,477.80 Q 663.10,485.43 661.33,493.05 Q 659.37,501.50 655.49,509.32 Q 654.45,511.42 652.40,514.70 Q 650.76,517.33 649.15,519.99 Q 646.06,525.09 644.08,527.83 Q 628.83,549.00 606.19,563.69 Q 585.02,577.42 560.75,580.79 Q 558.15,580.94 560.19,578.28 A 2.18,2.15 12.9 0 1 561.47,577.49 Q 563.22,577.16 564.39,576.66 Q 566.55,575.75 567.15,575.62 Q 578.69,573.08 586.19,570.44 Q 591.10,568.71 596.98,564.46 Q 602.39,560.56 608.06,557.06 Q 611.57,554.89 614.69,552.22 Q 616.66,550.52 620.32,546.31 Q 623.80,542.30 627.58,538.58 Q 632.59,533.66 634.88,530.90 Q 642.33,521.92 648.73,512.15 Q 650.59,509.31 652.27,505.57 Q 653.80,502.17 655.40,498.80 Q 656.81,495.84 657.25,492.94 Q 657.98,488.10 657.75,486.75 Q 657.08,482.84 657.90,479.10 Q 658.85,474.78 658.93,473.28 Q 659.26,467.09 659.26,460.89 Q 659.27,458.43 658.32,455.26 Q 657.66,453.07 657.27,450.82 Q 656.83,448.31 655.91,446.53 Q 654.19,443.21 652.31,439.99 Q 652.05,439.55 652.56,439.61 Q 656.00,440.01 657.21,443.50 Z"/>
<path fill="#53311a" d="M 496.75,446.21 Q 435.56,482.02 399.06,503.81 Q 398.25,504.30 397.96,505.50 Q 398.03,507.44 397.46,507.54 Q 395.69,507.85 395.04,506.18 Q 393.36,501.85 394.79,500.75 Q 398.92,499.20 402.55,496.81 Q 408.15,493.12 409.78,492.21 Q 416.29,488.60 423.94,483.69 Q 425.13,482.92 425.50,482.04 Q 436.39,475.36 447.55,469.13 Q 456.87,463.91 464.79,459.00 Q 479.05,450.16 493.59,441.77 Q 496.02,440.38 498.90,439.71 Q 500.31,439.39 499.83,440.75 Q 498.82,443.59 496.75,446.21 Z"/>
<path fill="#4d3118" d="M 984.00,440.71 Q 992.77,452.33 993.75,464.75 Q 996.51,499.72 976.94,528.19 Q 964.31,546.56 946.44,560.72 Q 920.74,581.09 888.65,584.60 Q 882.35,585.29 870.34,585.10 Q 861.17,584.96 852.00,584.86 Q 844.26,584.77 832.00,584.90 Q 816.93,585.07 807.50,584.75 Q 805.63,584.69 806.29,582.50 Q 807.56,581.14 809.29,581.35 Q 810.67,581.52 810.74,581.52 Q 835.07,582.21 859.40,581.67 Q 859.47,581.67 873.09,581.80 Q 888.59,581.94 903.50,577.21 Q 908.70,576.96 912.96,574.00 L 915.04,573.25 Q 917.52,573.12 919.75,572.01 Q 924.42,569.68 928.70,566.70 Q 929.04,566.46 929.00,566.04 Q 934.87,562.88 941.81,557.06 Q 952.26,548.30 956.50,544.51 Q 957.24,543.85 958.46,542.04 Q 959.25,540.88 960.56,539.56 Q 982.55,517.54 989.51,486.54 Q 989.98,484.46 990.17,481.93 Q 990.35,479.59 990.56,477.26 Q 991.48,467.12 988.31,455.19 Q 986.13,446.97 982.36,441.60 A 0.44,0.40 60.7 0 1 982.51,440.96 Q 983.20,440.66 984.00,440.71 Z"/>
<path fill="#ecc792" d="M 693.54,442.25 Q 693.08,445.08 691.54,447.50 Q 691.30,444.39 693.29,441.99 Q 693.47,441.77 693.51,442.03 L 693.54,442.25 Z"/>
<path fill="#4d3118" d="M 658.75,442.21 Q 669.37,458.30 668.00,476.75 Q 666.00,503.80 650.69,527.69 Q 636.17,550.34 611.31,566.56 Q 587.91,581.84 561.73,584.64 Q 555.63,585.29 541.75,585.00 Q 512.05,584.38 482.35,585.22 Q 480.92,585.26 480.24,584.82 Q 478.81,583.88 480.79,582.00 Q 482.97,581.30 483.56,581.31 Q 509.81,581.96 536.06,581.81 Q 553.02,581.72 560.75,580.79 Q 585.02,577.42 606.19,563.69 Q 628.83,549.00 644.08,527.83 Q 646.06,525.09 649.15,519.99 Q 650.76,517.33 652.40,514.70 Q 654.45,511.42 655.49,509.32 Q 659.37,501.50 661.33,493.05 Q 663.10,485.43 663.97,477.80 Q 664.87,469.92 664.00,462.25 Q 662.87,452.27 657.21,443.50 Q 656.54,441.71 658.75,442.21 Z"/>
<path fill="#ffffff" d="M 496.75,446.21 Q 498.24,446.27 497.50,447.75 Q 495.85,451.04 492.74,459.24 Q 475.63,504.31 458.73,549.45 Q 454.74,560.11 450.25,569.77 A 0.78,0.77 -52.3 0 1 448.95,569.94 Q 424.30,540.07 400.14,510.85 Q 398.22,508.52 397.96,505.50 Q 398.25,504.30 399.06,503.81 Q 435.56,482.02 496.75,446.21 Z"/>
<path fill="#ecc792" d="M 846.79,456.50 L 844.29,463.75 Q 844.27,459.59 846.36,455.98 Q 846.49,455.76 846.55,455.48 Q 846.74,454.46 846.79,456.50 Z"/>
<path fill="#4d3118" d="M 611.21,464.25 Q 603.70,462.03 593.50,462.50 Q 589.05,462.71 569.75,462.16 Q 564.47,462.01 562.03,465.51 Q 561.50,466.27 559.18,472.59 Q 546.90,506.02 535.46,539.75 Q 533.43,541.27 531.08,540.60 A 0.94,0.94 21.3 0 1 530.49,539.27 Q 531.45,537.38 531.94,535.36 Q 532.69,532.27 533.01,531.37 Q 544.85,498.56 556.46,465.68 Q 557.91,461.59 559.81,460.15 Q 562.49,458.12 566.50,458.25 Q 577.37,458.60 588.25,458.49 Q 594.14,458.42 600.01,458.91 Q 604.74,459.31 611.06,462.19 Q 613.56,463.33 611.21,464.25 Z"/>
<path fill="#4d3118" d="M 941.25,466.29 Q 936.12,463.02 932.50,462.75 Q 919.25,461.75 894.37,462.20 Q 891.32,462.26 889.94,463.38 Q 888.22,464.79 887.25,467.50 Q 874.60,503.00 861.96,538.50 Q 861.46,538.72 861.46,539.25 Q 859.96,541.95 856.92,541.46 A 0.53,0.53 -76.4 0 1 856.50,540.77 Q 863.10,519.36 871.69,498.69 Q 873.69,493.86 874.84,489.55 Q 876.08,484.89 877.37,481.67 Q 878.98,477.65 880.27,473.51 Q 882.08,467.66 884.50,462.04 Q 886.15,458.19 890.50,458.25 Q 913.32,458.58 919.50,458.25 Q 930.90,457.64 940.69,463.81 Q 942.34,464.85 941.25,466.29 Z"/>
<path fill="#ecc792" d="M 518.54,460.50 L 516.29,467.00 Q 515.64,463.03 518.54,460.50 Z"/>
<path fill="#ffffff" d="M 941.25,466.29 Q 945.72,469.68 946.75,476.25 Q 948.33,486.29 946.46,494.25 Q 945.87,498.03 944.03,501.35 Q 943.68,501.98 943.68,502.60 Q 943.69,503.28 943.75,503.96 L 942.79,504.75 Q 940.37,507.09 939.12,510.22 A 1.73,1.70 83.8 0 1 938.52,510.98 Q 936.03,512.79 935.69,513.44 Q 934.15,516.39 929.75,520.25 Q 923.42,525.80 921.16,527.14 Q 916.16,530.10 911.20,533.14 Q 907.95,535.13 904.29,536.23 Q 903.10,536.58 903.85,536.84 Q 904.13,536.94 903.84,536.98 Q 894.83,538.14 885.79,539.09 Q 885.67,539.10 877.74,540.09 Q 870.19,541.03 862.57,540.71 A 0.56,0.54 0.0 0 1 862.03,540.19 L 861.96,538.50 Q 874.60,503.00 887.25,467.50 Q 888.22,464.79 889.94,463.38 Q 891.32,462.26 894.37,462.20 Q 919.25,461.75 932.50,462.75 Q 936.12,463.02 941.25,466.29 Z"/>
<path fill="#ffffff" d="M 611.21,464.25 L 614.50,466.04 Q 615.18,467.28 616.50,467.46 Q 620.57,471.64 621.50,477.75 Q 622.73,485.78 620.71,493.25 Q 618.87,495.65 619.54,498.75 Q 618.27,503.06 614.81,509.31 Q 604.55,527.88 586.44,536.94 Q 583.32,538.50 577.72,539.55 Q 573.98,540.25 568.73,540.57 Q 553.24,541.53 537.74,540.53 Q 537.44,540.51 536.78,540.68 Q 535.79,540.94 535.46,539.75 Q 546.90,506.02 559.18,472.59 Q 561.50,466.27 562.03,465.51 Q 564.47,462.01 569.75,462.16 Q 589.05,462.71 593.50,462.50 Q 603.70,462.03 611.21,464.25 Z"/>
<path fill="#ecc792" d="M 685.29,465.00 Q 685.01,467.71 683.29,469.75 Q 683.40,466.91 684.79,464.45 Q 684.94,464.18 684.97,463.89 Q 685.23,461.49 685.29,465.00 Z"/>
<path fill="#ecc792" d="M 614.50,466.04 Q 616.10,466.00 616.50,467.46 Q 615.18,467.28 614.50,466.04 Z"/>
<path fill="#ecc792" d="M 683.04,471.50 L 680.04,479.75 Q 679.99,478.50 679.99,477.25 Q 679.99,476.08 680.62,474.91 Q 681.94,472.46 682.79,469.79 Q 682.95,469.29 682.97,469.81 L 683.04,471.50 Z"/>
<path fill="#2b1809" d="M 270.21,475.00 Q 266.42,473.50 260.25,473.50 Q 184.75,473.52 109.25,473.64 Q 102.45,473.65 102.75,480.75 Q 103.02,487.12 105.00,491.71 Q 104.75,493.25 103.55,491.45 Q 99.32,485.13 99.25,477.00 Q 99.20,471.41 104.50,470.50 Q 107.51,469.98 120.25,470.23 Q 139.25,470.61 158.25,470.54 Q 190.71,470.41 223.16,470.48 Q 227.11,470.48 241.82,470.23 Q 251.16,470.06 260.50,470.34 Q 265.22,470.48 269.44,473.31 Q 270.52,474.04 270.21,475.00 Z"/>
<path fill="#ffffff" d="M 270.21,475.00 Q 280.11,485.49 289.94,496.06 Q 291.58,497.83 291.70,499.62 Q 291.81,501.24 290.26,502.86 Q 288.39,504.80 285.06,506.81 Q 270.76,515.46 263.06,520.56 Q 254.66,526.13 248.28,530.07 Q 240.27,535.01 238.26,535.87 Q 232.91,538.16 226.69,538.19 Q 182.63,538.40 149.42,538.04 Q 144.46,537.99 142.12,537.61 Q 138.19,536.96 135.06,535.44 Q 132.95,534.41 131.25,531.71 Q 128.89,527.19 128.50,520.50 Q 128.12,514.04 134.50,514.03 Q 148.51,514.00 162.53,514.00 Q 162.57,514.00 169.97,513.82 Q 174.67,513.71 181.50,514.00 Q 184.55,514.13 201.19,513.94 Q 207.27,513.87 210.19,509.69 Q 213.26,505.28 208.25,502.21 Q 205.17,498.66 200.81,498.01 Q 200.35,497.94 192.67,498.08 Q 157.08,498.70 121.51,497.58 Q 114.93,497.38 109.75,495.75 Q 106.72,494.80 105.00,491.71 Q 103.02,487.12 102.75,480.75 Q 102.45,473.65 109.25,473.64 Q 184.75,473.52 260.25,473.50 Q 266.42,473.50 270.21,475.00 Z"/>
<path fill="#884b1e" d="M 425.50,482.04 Q 425.13,482.92 423.94,483.69 Q 416.29,488.60 409.78,492.21 Q 408.15,493.12 402.55,496.81 Q 398.92,499.20 394.79,500.75 Q 395.13,499.35 396.25,498.75 Q 414.04,489.23 419.31,485.56 Q 422.99,483.01 425.50,482.04 Z"/>
<path fill="#ecc792" d="M 678.04,485.50 Q 677.55,488.08 676.04,490.25 Q 676.06,487.93 677.27,485.95 Q 677.44,485.68 677.45,485.38 Q 677.62,482.62 678.04,485.50 Z"/>
<path fill="#ecc792" d="M 620.71,493.25 Q 620.68,496.10 619.54,498.75 Q 618.87,495.65 620.71,493.25 Z"/>
<path fill="#ecc792" d="M 946.46,494.25 Q 946.58,499.52 943.75,503.96 Q 943.69,503.28 943.68,502.60 Q 943.68,501.98 944.03,501.35 Q 945.87,498.03 946.46,494.25 Z"/>
<path fill="#4a2a12" d="M 208.25,502.21 Q 213.26,505.28 210.19,509.69 Q 207.27,513.87 201.19,513.94 Q 184.55,514.13 181.50,514.00 Q 174.67,513.71 169.97,513.82 Q 162.57,514.00 162.53,514.00 Q 148.51,514.00 134.50,514.03 Q 128.12,514.04 128.50,520.50 Q 128.89,527.19 131.25,531.71 Q 130.51,532.39 129.56,531.19 Q 124.73,525.06 125.25,516.00 Q 125.58,510.26 131.00,510.39 Q 163.36,511.19 195.72,510.80 Q 201.04,510.74 203.09,509.66 Q 206.82,507.72 207.50,502.75 Q 207.57,502.23 208.25,502.21 Z"/>
<path fill="#ecc792" d="M 670.71,505.25 L 669.04,509.75 Q 668.72,507.44 669.81,505.42 Q 669.94,505.18 669.95,504.93 Q 670.07,503.02 670.71,505.25 Z"/>
<path fill="#fbe2bc" d="M 942.79,504.75 Q 941.91,509.24 940.31,511.56 Q 937.75,515.28 936.90,516.99 Q 936.67,517.44 936.28,517.72 Q 934.06,519.31 932.58,521.63 Q 932.36,521.97 931.87,522.29 Q 931.21,522.72 931.47,523.33 A 0.85,0.62 57.4 0 1 931.42,524.14 Q 929.07,526.87 926.13,528.89 Q 921.35,532.18 921.06,532.39 Q 917.55,534.89 913.50,536.54 Q 909.98,536.35 907.50,538.71 Q 897.58,541.55 887.25,541.46 L 861.71,540.75 L 861.46,539.25 Q 861.46,538.72 861.96,538.50 L 862.03,540.19 A 0.56,0.54 0.0 0 0 862.57,540.71 Q 870.19,541.03 877.74,540.09 Q 885.67,539.10 885.79,539.09 Q 894.83,538.14 903.84,536.98 Q 904.13,536.94 903.85,536.84 Q 903.10,536.58 904.29,536.23 Q 907.95,535.13 911.20,533.14 Q 916.16,530.10 921.16,527.14 Q 923.42,525.80 929.75,520.25 Q 934.15,516.39 935.69,513.44 Q 936.03,512.79 938.52,510.98 A 1.73,1.70 83.8 0 0 939.12,510.22 Q 940.37,507.09 942.79,504.75 Z"/>
<path fill="#53311a" d="M 304.71,513.50 Q 301.53,514.22 296.94,517.19 Q 274.18,531.92 217.81,566.81 Q 215.11,568.48 212.07,569.34 Q 207.64,570.61 205.75,566.79 Q 206.59,565.65 207.47,565.71 A 5.10,5.08 32.8 0 0 210.27,565.11 Q 218.70,560.55 224.72,556.73 Q 258.98,534.97 293.31,513.31 Q 297.80,510.48 300.28,509.65 A 1.15,0.88 -32.5 0 1 301.20,509.73 L 304.81,512.22 A 0.73,0.46 -65.3 0 1 304.91,512.98 L 304.71,513.50 Z"/>
<path fill="#53311a" d="M 385.25,513.96 Q 382.35,513.87 380.00,515.54 Q 377.23,515.78 375.50,517.96 Q 356.94,529.02 338.44,540.19 Q 332.60,543.71 328.50,538.04 Q 329.06,536.94 330.08,537.06 Q 331.40,537.22 331.46,537.21 Q 334.49,536.93 338.06,534.56 Q 352.83,524.75 375.69,511.69 Q 381.27,508.50 385.14,512.72 A 0.97,0.75 35.4 0 1 385.38,513.52 L 385.25,513.96 Z"/>
<path fill="#ecc792" d="M 826.00,513.29 Q 825.53,516.20 824.04,518.75 Q 824.05,516.20 825.27,513.98 Q 825.43,513.69 825.43,513.34 Q 825.44,511.81 826.00,513.29 Z"/>
<path fill="#ffffff" d="M 304.71,513.50 Q 307.00,514.78 308.74,516.76 Q 318.33,527.68 328.50,538.04 Q 332.60,543.71 338.44,540.19 Q 356.94,529.02 375.50,517.96 L 380.00,515.54 Q 382.35,513.87 385.25,513.96 Q 386.79,514.82 387.79,516.25 L 387.73,517.09 A 1.31,0.22 -83.3 0 0 387.78,518.02 Q 391.10,524.81 395.56,529.69 Q 400.82,535.44 404.48,540.05 Q 406.37,542.44 408.56,544.45 Q 411.35,547.01 412.81,548.69 Q 413.62,549.61 414.50,549.46 L 435.89,576.00 Q 436.94,577.31 435.26,577.50 Q 428.27,578.28 421.25,578.15 Q 406.63,577.88 392.00,578.09 Q 373.00,578.38 354.01,578.15 Q 341.41,578.00 334.00,578.01 Q 258.40,578.10 182.79,577.76 Q 182.70,577.76 177.72,577.87 Q 168.63,578.06 160.81,574.94 Q 158.56,574.04 156.75,571.46 Q 154.84,567.89 154.19,562.06 Q 153.44,555.40 158.04,554.06 Q 159.08,553.75 165.50,553.75 Q 186.50,553.72 207.50,553.79 Q 207.98,553.97 207.99,554.35 Q 208.01,554.62 207.69,554.91 Q 205.63,556.74 203.64,558.65 Q 200.35,561.81 203.63,564.88 Q 204.67,565.85 205.75,566.79 Q 207.64,570.61 212.07,569.34 Q 215.11,568.48 217.81,566.81 Q 274.18,531.92 296.94,517.19 Q 301.53,514.22 304.71,513.50 Z"/>
<path fill="#989697" d="M 380.00,515.54 L 375.50,517.96 Q 377.23,515.78 380.00,515.54 Z"/>
<path fill="#fbe2bc" d="M 387.79,516.25 Q 401.55,532.53 414.50,549.46 Q 413.62,549.61 412.81,548.69 Q 411.35,547.01 408.56,544.45 Q 406.37,542.44 404.48,540.05 Q 400.82,535.44 395.56,529.69 Q 391.10,524.81 387.78,518.02 A 1.31,0.22 -83.3 0 1 387.73,517.09 L 387.79,516.25 Z"/>
<path fill="#ecc792" d="M 498.21,516.50 Q 496.58,523.73 493.54,530.50 L 493.34,528.24 Q 493.29,527.59 493.43,527.28 L 498.21,516.50 Z"/>
<path fill="#4d3118" d="M 769.71,522.50 L 768.00,523.04 Q 767.21,523.01 766.46,523.23 Q 765.52,523.50 764.98,523.51 Q 742.17,523.87 719.35,523.77 Q 713.16,523.74 712.67,523.84 Q 710.12,524.35 708.39,526.33 Q 707.33,527.55 706.27,530.57 Q 697.76,554.68 688.98,578.70 Q 687.90,581.66 685.61,583.40 Q 683.86,584.73 680.52,584.85 Q 663.92,585.41 660.25,585.00 Q 655.12,584.42 650.00,585.02 Q 646.38,585.44 648.54,582.25 Q 652.98,581.63 657.44,581.75 Q 665.03,581.97 665.06,581.97 Q 675.12,581.83 680.25,581.00 Q 681.84,580.74 683.07,579.09 Q 683.72,578.22 684.56,576.15 Q 691.68,558.42 697.78,540.30 Q 701.44,529.41 703.00,525.75 Q 704.41,522.43 707.49,520.83 Q 709.57,519.74 713.71,519.78 Q 734.03,520.01 754.34,520.63 Q 756.44,520.70 761.65,520.38 Q 765.78,520.13 769.00,520.75 Q 770.15,520.97 769.71,522.50 ZM 747.29,523.40 Q 748.72,523.61 750.66,523.44 Q 752.47,523.28 750.66,523.24 Q 749.12,523.21 747.31,523.29 Q 746.73,523.32 747.29,523.40 Z"/>
<path fill="#3b3a3b" d="M 747.31,523.29 Q 749.12,523.21 750.66,523.24 Q 752.47,523.28 750.66,523.44 Q 748.72,523.61 747.29,523.40 Q 746.73,523.32 747.31,523.29 Z"/>
<path fill="#ecc792" d="M 820.54,528.25 Q 820.51,530.24 819.29,531.75 Q 819.33,529.94 820.14,528.29 Q 820.19,528.19 820.20,528.08 Q 820.38,526.44 820.54,528.25 Z"/>
<path fill="#ecc792" d="M 661.29,531.75 L 656.29,545.25 L 655.84,542.49 A 1.78,1.45 56.9 0 1 655.94,541.54 L 660.98,529.77 Q 661.20,529.27 661.22,529.81 L 661.29,531.75 Z"/>
<path fill="#ecc792" d="M 913.50,536.54 L 907.50,538.71 Q 909.98,536.35 913.50,536.54 Z"/>
<path fill="#d96e26" d="M 861.71,540.75 L 887.25,541.46 Q 882.34,541.44 877.43,541.65 Q 876.26,541.71 873.75,542.56 Q 871.84,543.21 869.83,542.89 Q 866.73,542.40 866.62,542.39 Q 863.29,542.17 862.50,542.00 Q 861.35,541.76 861.71,540.75 Z"/>
<path fill="#884b1e" d="M 801.46,543.25 Q 799.51,551.56 795.79,559.25 Q 795.86,557.15 796.81,554.56 Q 799.31,547.76 801.46,543.25 Z"/>
<path fill="#452408" d="M 207.50,553.79 Q 186.50,553.72 165.50,553.75 Q 159.08,553.75 158.04,554.06 Q 153.44,555.40 154.19,562.06 Q 154.84,567.89 156.75,571.46 Q 153.63,570.27 152.25,566.00 Q 150.56,560.77 150.74,556.50 Q 150.88,553.34 152.88,551.83 Q 154.87,550.32 157.73,550.44 Q 159.18,550.50 159.29,550.50 Q 184.90,550.55 210.50,550.99 A 0.88,0.64 -6.7 0 1 211.26,551.42 Q 211.47,551.92 211.13,552.44 Q 210.90,552.79 210.35,552.97 Q 208.94,553.44 207.50,553.79 Z"/>
<path fill="#ecc792" d="M 810.04,557.50 L 808.54,562.25 Q 808.47,560.88 808.60,559.51 Q 808.64,559.12 808.85,559.51 Q 808.93,559.66 808.94,559.49 Q 809.01,558.24 810.04,557.50 Z"/>
<path fill="#ecc792" d="M 807.79,564.25 Q 806.70,567.04 806.22,570.00 Q 806.08,570.85 805.29,571.00 Q 805.34,566.85 807.32,563.24 Q 807.68,562.58 807.73,563.28 L 807.79,564.25 Z"/>
<path fill="#884b1e" d="M 929.00,566.04 Q 929.04,566.46 928.70,566.70 Q 924.42,569.68 919.75,572.01 Q 917.52,573.12 915.04,573.25 Q 916.38,572.03 918.02,571.29 Q 920.19,570.31 921.15,569.70 Q 924.82,567.36 929.00,566.04 Z"/>
<path fill="#884b1e" d="M 912.96,574.00 Q 908.70,576.96 903.50,577.21 Q 908.01,574.96 912.96,574.00 Z"/>
<path fill="#989697" d="M 493.75,620.21 Q 493.21,620.17 493.25,620.50 Q 494.02,626.69 490.78,631.16 Q 488.42,634.41 485.22,636.29 Q 481.55,638.45 477.31,637.44 Q 473.96,636.64 473.00,636.54 Q 470.50,634.63 469.10,631.97 Q 467.75,629.41 467.99,626.31 Q 468.59,618.63 476.14,615.09 Q 483.28,611.73 489.69,616.56 Q 492.39,618.60 493.75,620.21 Z"/>
<path fill="#989697" d="M 522.46,620.25 Q 521.60,620.79 521.94,621.54 Q 522.36,622.44 522.38,622.54 Q 526.93,640.96 532.25,659.16 Q 532.54,660.13 533.11,660.62 Q 534.72,661.99 534.79,658.75 Q 535.30,661.25 536.69,658.89 Q 546.72,641.72 553.69,627.69 Q 555.08,624.89 556.53,622.76 Q 558.33,620.12 560.52,618.81 Q 563.74,616.87 567.75,616.88 Q 571.90,616.89 577.23,617.68 A 1.94,1.55 73.0 0 1 578.40,618.48 L 580.25,621.21 Q 578.15,622.86 577.31,624.31 Q 568.27,639.89 549.62,673.31 Q 549.57,673.42 547.34,677.61 Q 545.04,681.96 542.31,685.31 Q 535.81,693.32 525.56,690.81 Q 525.51,690.80 524.61,690.42 Q 523.92,690.14 523.21,690.50 Q 519.08,687.21 518.00,683.75 Q 510.77,660.55 500.81,620.55 Q 500.79,620.47 500.52,619.58 Q 499.67,616.76 502.75,616.50 Q 508.72,615.99 514.72,615.85 Q 517.17,615.79 518.86,616.94 Q 520.88,618.31 522.46,620.25 Z"/>
<path fill="#170d02" d="M 258.75,616.54 Q 259.03,617.41 258.25,617.54 Q 252.48,617.25 246.71,617.01 Q 246.50,617.00 246.31,616.89 Q 244.17,615.63 246.61,616.37 Q 246.82,616.44 247.05,616.44 Q 252.90,616.52 258.75,616.54 Z"/>
<path fill="#989697" d="M 382.75,619.96 Q 381.51,620.05 381.31,620.81 Q 380.15,625.34 378.86,628.60 Q 377.81,631.29 374.93,631.01 Q 331.96,626.81 289.74,621.89 Q 284.82,621.32 278.75,620.88 Q 273.25,620.47 267.75,619.96 Q 267.94,619.33 267.50,619.25 Q 262.87,618.38 258.25,617.54 Q 259.03,617.41 258.75,616.54 Q 263.36,616.00 268.00,616.00 Q 323.38,616.00 378.76,616.00 Q 380.64,616.00 381.05,617.83 Q 381.32,619.01 382.75,619.96 Z"/>
<path fill="#989697" d="M 424.00,620.46 Q 422.79,620.49 422.75,621.50 Q 422.58,625.91 422.43,626.93 Q 419.52,646.98 416.42,666.99 Q 415.77,671.14 419.71,671.00 L 419.98,671.37 A 1.09,0.76 -12.9 0 0 420.77,671.69 L 452.27,671.74 Q 454.30,671.75 454.87,673.68 Q 455.14,674.59 456.25,675.71 Q 455.47,676.98 455.47,678.50 Q 455.46,683.59 454.41,686.94 Q 453.47,689.93 450.33,689.99 Q 433.15,690.34 416.26,689.84 Q 413.40,689.75 410.81,689.08 Q 408.13,688.38 405.48,687.57 Q 404.92,687.40 404.96,688.00 Q 400.14,684.14 397.88,678.71 Q 396.35,675.07 396.59,669.57 Q 396.78,664.89 397.43,660.24 Q 400.26,639.70 403.72,619.42 A 2.40,2.40 87.6 0 1 405.48,617.50 Q 408.61,616.69 411.81,616.52 Q 416.79,616.24 418.17,616.44 Q 421.82,616.97 424.00,620.46 Z"/>
<path fill="#989697" d="M 742.00,622.96 Q 741.39,623.26 741.51,624.00 Q 742.82,632.00 736.62,636.88 Q 731.76,640.70 725.69,639.79 Q 725.61,639.78 724.47,639.46 Q 723.05,639.07 723.21,640.75 Q 718.84,637.69 717.06,633.69 Q 715.35,629.85 717.31,625.53 Q 720.95,617.48 728.99,616.56 Q 732.89,616.11 736.25,617.89 Q 739.64,619.69 742.00,622.96 Z"/>
<path fill="#989697" d="M 625.25,622.21 Q 624.08,622.52 624.00,623.25 Q 623.58,626.88 622.89,630.47 Q 622.15,634.35 621.90,634.87 Q 620.69,637.42 617.00,636.75 Q 609.38,635.36 604.03,639.49 Q 601.85,641.16 599.63,644.60 Q 597.77,647.47 596.30,650.56 Q 587.33,669.32 576.89,687.31 Q 575.30,690.06 572.69,690.69 Q 568.62,691.67 563.27,690.87 Q 560.26,690.43 560.04,693.50 Q 560.44,690.85 557.47,690.38 Q 555.11,690.01 556.16,687.87 Q 566.56,666.46 577.94,645.39 Q 584.44,633.35 588.81,628.93 Q 601.25,616.36 621.04,618.30 A 2.57,2.57 80.7 0 1 623.15,619.82 Q 623.91,621.54 625.25,622.21 Z"/>
<path fill="#989697" d="M 892.71,632.75 Q 892.29,632.66 892.04,632.84 A 0.75,0.50 59.5 0 0 891.99,633.69 Q 903.00,653.89 890.58,673.37 Q 884.38,683.10 874.42,688.91 Q 859.84,697.41 843.11,694.20 Q 835.92,692.83 831.56,689.94 Q 829.84,688.80 829.00,688.79 Q 808.39,670.91 819.44,645.44 Q 820.10,643.91 819.75,642.96 Q 822.46,641.17 823.21,638.00 Q 823.66,638.39 824.19,637.69 Q 839.07,618.30 862.42,618.18 Q 871.73,618.13 879.05,621.76 Q 886.90,625.65 892.71,632.75 ZM 842.29,672.00 Q 847.16,678.03 854.75,677.00 Q 869.90,674.95 875.87,660.55 Q 878.93,653.18 875.69,646.56 Q 874.47,644.09 871.25,642.29 Q 871.88,641.52 871.21,640.79 Q 869.20,638.61 866.38,637.73 Q 856.07,634.51 847.18,640.42 Q 835.61,648.10 836.70,662.24 Q 837.11,667.70 840.31,671.69 Q 841.29,672.90 842.29,672.00 Z"/>
<path fill="#989697" d="M 688.21,630.75 Q 687.39,631.09 687.94,632.06 Q 689.68,635.15 690.45,638.97 Q 691.14,642.40 691.17,642.51 Q 696.78,666.26 701.26,690.30 Q 701.62,692.23 699.66,692.25 Q 692.78,692.30 686.31,692.19 Q 684.84,692.16 684.25,692.79 Q 680.37,689.84 679.50,685.00 Q 678.09,677.15 675.89,669.48 Q 675.72,668.91 675.40,668.65 Q 675.02,668.34 674.50,668.21 Q 674.51,665.96 672.75,665.25 Q 670.90,664.51 666.75,664.31 Q 657.34,663.86 647.95,664.36 Q 644.63,664.53 643.25,665.47 Q 640.68,667.21 642.00,671.00 Q 643.01,673.90 645.46,672.00 Q 645.68,673.26 646.75,673.25 Q 662.05,673.09 670.05,673.42 A 0.57,0.55 88.8 0 1 670.58,673.94 Q 670.72,675.91 672.25,677.21 Q 671.33,677.34 671.23,678.25 Q 670.66,683.38 669.95,688.49 Q 669.55,691.40 666.50,691.45 Q 653.87,691.67 641.25,691.25 Q 637.79,691.14 629.00,688.04 Q 623.54,683.63 621.93,677.36 Q 620.50,671.83 622.36,665.19 Q 624.93,655.99 632.56,650.31 Q 638.38,645.98 647.00,645.93 Q 657.97,645.87 668.93,646.17 A 0.85,0.77 14.0 0 0 669.69,645.76 Q 671.13,643.14 668.75,641.04 Q 669.62,639.57 668.19,638.81 Q 664.48,636.84 659.98,636.85 Q 655.08,636.86 655.03,636.86 Q 646.39,636.45 637.75,637.04 Q 633.85,635.63 633.77,632.02 Q 633.75,631.41 634.64,626.34 Q 635.21,623.08 635.95,620.32 Q 636.44,618.50 638.33,618.50 Q 652.25,618.50 665.50,618.46 Q 671.54,618.44 676.94,621.06 Q 682.30,623.67 688.21,630.75 Z"/>
<path fill="#343435" d="M 267.75,619.96 Q 273.25,620.47 278.75,620.88 Q 284.82,621.32 289.74,621.89 Q 331.96,626.81 374.93,631.01 Q 377.81,631.29 378.86,628.60 Q 380.15,625.34 381.31,620.81 Q 381.51,620.05 382.75,619.96 Q 385.87,620.61 385.16,623.79 Q 384.27,627.80 382.87,631.66 Q 381.60,635.16 377.72,634.74 Q 317.49,628.23 257.26,621.68 Q 253.01,621.22 248.82,620.42 Q 248.38,620.33 248.19,620.05 Q 247.87,619.55 248.56,619.60 Q 258.14,620.28 267.75,619.96 Z"/>
<path fill="#989697" d="M 971.50,631.21 Q 971.03,631.76 971.46,632.15 Q 971.83,632.49 971.86,632.53 Q 974.91,636.40 976.00,641.75 Q 977.62,649.65 976.69,656.94 Q 975.70,664.74 971.21,691.74 Q 970.67,694.95 967.76,694.90 Q 965.32,694.86 965.23,694.86 Q 959.98,695.26 954.75,694.54 Q 950.72,694.14 951.50,689.75 Q 952.98,681.46 956.25,658.75 Q 957.38,650.91 954.44,644.56 Q 954.09,643.82 952.50,642.79 Q 952.94,642.20 952.19,641.56 Q 948.53,638.46 944.25,637.81 Q 940.40,637.23 935.93,639.00 Q 925.86,643.02 922.95,654.38 Q 920.39,664.42 919.36,674.74 Q 918.66,681.70 917.03,688.51 Q 916.20,691.94 913.57,693.67 Q 911.78,694.84 908.71,695.04 Q 905.80,695.23 903.56,694.69 Q 901.71,694.24 900.75,694.54 Q 898.56,693.78 897.53,691.88 A 1.70,1.39 -60.6 0 1 897.37,690.95 Q 898.54,680.90 903.00,655.00 Q 905.01,643.36 911.12,635.63 Q 925.47,617.50 948.75,619.75 Q 962.22,621.05 971.50,631.21 Z"/>
<path fill="#989697" d="M 822.75,624.46 Q 821.88,624.47 821.69,625.19 Q 820.39,630.18 819.06,637.76 A 1.15,1.15 4.6 0 1 817.95,638.70 Q 813.84,638.80 809.00,638.69 Q 802.22,638.55 797.55,643.30 Q 793.32,647.61 790.94,652.44 Q 785.08,664.35 779.51,673.33 Q 775.82,679.27 771.44,683.44 Q 759.85,694.45 743.50,692.29 Q 741.53,692.03 741.46,694.25 Q 741.49,692.63 739.58,692.14 A 2.18,2.17 3.2 0 1 737.96,690.33 Q 737.06,683.63 739.09,678.59 Q 740.06,676.18 741.95,675.36 Q 743.81,674.55 746.50,674.50 Q 759.08,674.27 764.31,662.06 Q 767.61,654.37 777.07,639.11 Q 790.61,617.27 816.27,620.24 Q 818.36,620.48 819.86,621.68 Q 821.42,622.94 822.75,624.46 Z"/>
<path fill="#383738" d="M 493.75,620.21 Q 499.53,625.91 495.71,633.20 Q 492.86,638.64 487.00,640.54 Q 481.51,640.94 476.25,639.54 L 473.00,636.54 Q 473.96,636.64 477.31,637.44 Q 481.55,638.45 485.22,636.29 Q 488.42,634.41 490.78,631.16 Q 494.02,626.69 493.25,620.50 Q 493.21,620.17 493.75,620.21 Z"/>
<path fill="#3b3a3b" d="M 522.46,620.25 Q 525.25,622.50 525.75,624.50 Q 530.02,641.69 534.79,658.75 Q 534.72,661.99 533.11,660.62 Q 532.54,660.13 532.25,659.16 Q 526.93,640.96 522.38,622.54 Q 522.36,622.44 521.94,621.54 Q 521.60,620.79 522.46,620.25 Z"/>
<path fill="#383738" d="M 424.00,620.46 Q 426.37,621.19 426.61,623.28 Q 426.65,623.65 426.45,626.73 Q 426.31,628.99 425.75,633.00 Q 423.19,651.40 420.25,669.75 Q 420.20,670.05 419.71,671.00 Q 415.77,671.14 416.42,666.99 Q 419.52,646.98 422.43,626.93 Q 422.58,625.91 422.75,621.50 Q 422.79,620.49 424.00,620.46 Z"/>
<path fill="#383738" d="M 580.25,621.21 Q 584.27,621.99 582.19,625.49 Q 581.52,626.59 581.49,626.66 Q 566.24,654.78 550.16,682.43 Q 545.60,690.25 542.47,692.45 Q 536.53,696.61 528.20,694.27 Q 524.97,693.37 523.21,690.50 Q 523.92,690.14 524.61,690.42 Q 525.51,690.80 525.56,690.81 Q 535.81,693.32 542.31,685.31 Q 545.04,681.96 547.34,677.61 Q 549.57,673.42 549.62,673.31 Q 568.27,639.89 577.31,624.31 Q 578.15,622.86 580.25,621.21 Z"/>
<path fill="#383738" d="M 625.25,622.21 Q 626.21,622.24 626.80,622.84 Q 627.24,623.30 627.31,624.28 Q 627.83,632.22 625.11,639.71 A 0.84,0.83 -84.1 0 1 624.44,640.26 Q 622.36,640.54 620.29,640.33 Q 617.10,640.00 616.20,640.09 Q 608.05,640.84 603.44,648.19 Q 599.96,653.72 597.76,658.35 Q 592.26,669.91 581.31,689.56 Q 580.20,691.56 578.98,692.90 Q 577.75,694.25 575.50,694.54 Q 568.12,695.50 560.68,694.62 A 0.81,0.57 1.3 0 1 559.99,694.11 Q 559.94,693.83 560.04,693.50 Q 560.26,690.43 563.27,690.87 Q 568.62,691.67 572.69,690.69 Q 575.30,690.06 576.89,687.31 Q 587.33,669.32 596.30,650.56 Q 597.77,647.47 599.63,644.60 Q 601.85,641.16 604.03,639.49 Q 609.38,635.36 617.00,636.75 Q 620.69,637.42 621.90,634.87 Q 622.15,634.35 622.89,630.47 Q 623.58,626.88 624.00,623.25 Q 624.08,622.52 625.25,622.21 Z"/>
<path fill="#3b3a3b" d="M 742.00,622.96 Q 746.88,627.24 745.50,632.75 Q 743.55,640.52 735.00,643.79 Q 730.27,644.13 725.79,642.75 L 723.21,640.75 Q 723.05,639.07 724.47,639.46 Q 725.61,639.78 725.69,639.79 Q 731.76,640.70 736.62,636.88 Q 742.82,632.00 741.51,624.00 Q 741.39,623.26 742.00,622.96 Z"/>
<path fill="#3b3a3b" d="M 822.75,624.46 Q 824.83,625.42 824.94,627.75 Q 825.10,631.28 823.86,634.58 Q 823.24,636.23 823.21,638.00 Q 822.46,641.17 819.75,642.96 Q 809.59,640.39 802.31,646.06 Q 799.49,648.26 796.88,652.28 Q 795.57,654.30 793.08,659.54 Q 786.40,673.63 779.94,682.19 Q 769.86,695.53 752.99,696.09 Q 748.25,696.25 743.50,696.25 Q 741.74,696.25 741.46,694.25 Q 741.53,692.03 743.50,692.29 Q 759.85,694.45 771.44,683.44 Q 775.82,679.27 779.51,673.33 Q 785.08,664.35 790.94,652.44 Q 793.32,647.61 797.55,643.30 Q 802.22,638.55 809.00,638.69 Q 813.84,638.80 817.95,638.70 A 1.15,1.15 4.6 0 0 819.06,637.76 Q 820.39,630.18 821.69,625.19 Q 821.88,624.47 822.75,624.46 Z"/>
<path fill="#343435" d="M 688.21,630.75 Q 692.83,635.88 694.50,643.75 Q 699.43,666.91 704.37,690.08 Q 704.91,692.61 704.76,694.36 A 1.53,1.52 2.5 0 1 703.24,695.75 Q 694.88,695.75 688.50,695.76 Q 685.24,695.77 684.25,692.79 Q 684.84,692.16 686.31,692.19 Q 692.78,692.30 699.66,692.25 Q 701.62,692.23 701.26,690.30 Q 696.78,666.26 691.17,642.51 Q 691.14,642.40 690.45,638.97 Q 689.68,635.15 687.94,632.06 Q 687.39,631.09 688.21,630.75 Z"/>
<path fill="#383738" d="M 971.50,631.21 Q 979.72,639.24 980.75,649.50 Q 981.31,655.13 979.89,664.18 Q 975.86,689.66 975.19,694.44 Q 974.60,698.60 970.92,698.63 Q 968.18,698.64 968.08,698.65 Q 964.52,698.96 960.95,698.63 Q 960.85,698.62 958.55,698.58 Q 955.00,698.50 954.75,694.54 Q 959.98,695.26 965.23,694.86 Q 965.32,694.86 967.76,694.90 Q 970.67,694.95 971.21,691.74 Q 975.70,664.74 976.69,656.94 Q 977.62,649.65 976.00,641.75 Q 974.91,636.40 971.86,632.53 Q 971.83,632.49 971.46,632.15 Q 971.03,631.76 971.50,631.21 Z"/>
<path fill="#3b3a3b" d="M 892.71,632.75 Q 896.99,637.77 898.69,643.06 Q 903.66,658.54 897.31,672.07 Q 893.23,680.76 885.12,687.75 Q 870.24,700.58 849.25,698.75 Q 837.64,697.74 829.00,688.79 Q 829.84,688.80 831.56,689.94 Q 835.92,692.83 843.11,694.20 Q 859.84,697.41 874.42,688.91 Q 884.38,683.10 890.58,673.37 Q 903.00,653.89 891.99,633.69 A 0.75,0.50 59.5 0 1 892.04,632.84 Q 892.29,632.66 892.71,632.75 Z"/>
<path fill="#3b3a3b" d="M 871.25,642.29 Q 865.18,639.47 859.56,640.56 Q 849.01,642.63 843.29,652.49 Q 837.79,661.97 842.29,672.00 Q 841.29,672.90 840.31,671.69 Q 837.11,667.70 836.70,662.24 Q 835.61,648.10 847.18,640.42 Q 856.07,634.51 866.38,637.73 Q 869.20,638.61 871.21,640.79 Q 871.88,641.52 871.25,642.29 Z"/>
<path fill="#343435" d="M 668.75,641.04 Q 656.62,639.68 644.44,640.44 Q 644.36,640.44 642.58,640.67 Q 638.68,641.18 637.75,637.04 Q 646.39,636.45 655.03,636.86 Q 655.08,636.86 659.98,636.85 Q 664.48,636.84 668.19,638.81 Q 669.62,639.57 668.75,641.04 Z"/>
<path fill="#383738" d="M 952.50,642.79 Q 942.30,639.20 934.05,646.05 Q 929.32,649.97 927.31,655.81 Q 926.24,658.93 925.25,663.90 Q 924.66,666.85 924.03,672.13 Q 922.70,683.11 921.00,691.25 Q 919.45,698.65 912.34,698.64 Q 910.46,698.64 908.15,698.41 Q 906.44,698.23 904.00,697.75 Q 901.02,697.16 900.75,694.54 Q 901.71,694.24 903.56,694.69 Q 905.80,695.23 908.71,695.04 Q 911.78,694.84 913.57,693.67 Q 916.20,691.94 917.03,688.51 Q 918.66,681.70 919.36,674.74 Q 920.39,664.42 922.95,654.38 Q 925.86,643.02 935.93,639.00 Q 940.40,637.23 944.25,637.81 Q 948.53,638.46 952.19,641.56 Q 952.94,642.20 952.50,642.79 Z"/>
<path fill="#989697" d="M 476.25,639.54 Q 481.51,640.94 487.00,640.54 Q 484.35,642.74 487.75,644.21 Q 487.05,645.71 486.96,647.32 Q 486.81,650.09 486.80,650.16 Q 484.38,666.88 481.83,683.58 Q 481.36,686.70 480.59,687.74 Q 479.21,689.63 476.25,689.75 Q 470.23,690.00 467.06,689.84 A 1.07,0.80 -64.5 0 0 466.29,690.24 L 465.29,691.50 Q 464.09,689.58 462.71,689.03 A 2.11,2.04 15.4 0 1 461.40,686.80 L 467.87,643.78 Q 468.24,641.30 470.80,641.06 Q 473.43,640.82 476.00,640.25 Q 476.44,640.15 476.25,639.54 Z"/>
<path fill="#ffffff" d="M 871.25,642.29 Q 874.47,644.09 875.69,646.56 Q 878.93,653.18 875.87,660.55 Q 869.90,674.95 854.75,677.00 Q 847.16,678.03 842.29,672.00 Q 837.79,661.97 843.29,652.49 Q 849.01,642.63 859.56,640.56 Q 865.18,639.47 871.25,642.29 Z"/>
<path fill="#989697" d="M 375.50,645.71 Q 374.20,646.53 374.25,647.75 Q 374.43,651.91 373.24,655.10 A 0.97,0.95 2.2 0 1 372.58,655.70 Q 370.34,656.26 368.00,656.02 Q 361.87,655.38 355.78,654.54 Q 322.03,649.89 288.25,645.46 Q 288.27,644.37 287.54,644.51 Q 286.80,644.65 286.58,644.62 Q 277.93,643.45 269.27,642.35 Q 268.69,642.28 268.80,642.00 A 0.62,0.39 6.8 0 1 269.33,641.75 Q 317.29,641.34 365.25,641.50 Q 370.53,641.52 373.44,641.98 A 1.54,1.27 -12.6 0 1 374.29,642.41 Q 375.54,643.76 375.50,645.71 Z"/>
<path fill="#989697" d="M 725.79,642.75 Q 730.27,644.13 735.00,643.79 Q 734.54,644.17 734.50,644.69 A 1.07,0.66 25.4 0 0 734.99,645.45 Q 735.96,646.13 736.50,647.21 Q 735.63,647.76 735.64,648.76 Q 735.65,650.15 735.64,650.25 Q 732.61,670.08 729.72,689.72 Q 729.46,691.51 727.70,691.93 Q 722.76,693.13 717.69,692.72 Q 715.87,692.58 714.29,693.50 L 711.15,690.82 A 1.75,1.20 21.7 0 1 710.62,690.03 Q 709.94,687.18 710.50,683.25 Q 714.87,652.69 716.31,647.31 Q 717.22,643.91 720.74,643.64 Q 723.50,643.44 724.50,643.50 Q 725.51,643.57 725.79,642.75 Z"/>
<path fill="#343435" d="M 487.75,644.21 Q 490.19,645.08 490.50,646.75 Q 491.14,650.24 490.32,655.01 Q 489.39,660.37 489.37,660.52 Q 487.38,675.04 485.02,689.50 Q 484.71,691.41 483.38,692.47 Q 482.43,693.24 480.40,693.35 Q 475.46,693.62 470.52,693.53 Q 470.48,693.53 468.01,693.81 Q 465.80,694.07 465.29,691.50 L 466.29,690.24 A 1.07,0.80 -64.5 0 1 467.06,689.84 Q 470.23,690.00 476.25,689.75 Q 479.21,689.63 480.59,687.74 Q 481.36,686.70 481.83,683.58 Q 484.38,666.88 486.80,650.16 Q 486.81,650.09 486.96,647.32 Q 487.05,645.71 487.75,644.21 Z"/>
<path fill="#343435" d="M 288.25,645.46 Q 322.03,649.89 355.78,654.54 Q 361.87,655.38 368.00,656.02 Q 370.34,656.26 372.58,655.70 A 0.97,0.95 2.2 0 0 373.24,655.10 Q 374.43,651.91 374.25,647.75 Q 374.20,646.53 375.50,645.71 Q 377.91,644.96 378.50,646.66 Q 378.76,647.40 378.49,649.22 Q 377.92,653.09 377.75,657.02 Q 377.65,659.15 375.58,659.67 Q 373.42,660.20 370.49,659.79 Q 321.53,652.87 272.53,646.28 Q 272.04,646.21 272.30,645.93 A 0.65,0.51 15.6 0 1 272.76,645.74 L 288.25,645.46 Z"/>
<path fill="#3b3a3b" d="M 736.50,647.21 Q 740.29,647.46 739.71,651.19 Q 736.44,672.20 733.50,693.27 Q 733.19,695.45 731.02,695.83 Q 725.06,696.89 718.50,696.50 Q 715.11,696.30 714.29,693.50 Q 715.87,692.58 717.69,692.72 Q 722.76,693.13 727.70,691.93 Q 729.46,691.51 729.72,689.72 Q 732.61,670.08 735.64,650.25 Q 735.65,650.15 735.64,648.76 Q 735.63,647.76 736.50,647.21 Z"/>
<path fill="#343435" d="M 674.50,668.21 Q 665.58,667.53 656.64,667.71 Q 656.55,667.71 653.36,667.61 Q 649.67,667.49 646.81,669.31 Q 645.56,670.11 645.46,672.00 Q 643.01,673.90 642.00,671.00 Q 640.68,667.21 643.25,665.47 Q 644.63,664.53 647.95,664.36 Q 657.34,663.86 666.75,664.31 Q 670.90,664.51 672.75,665.25 Q 674.51,665.96 674.50,668.21 Z"/>
<path fill="#989697" d="M 371.00,670.96 Q 369.73,671.24 368.70,672.00 A 1.46,0.84 88.6 0 0 368.26,672.81 L 366.61,680.68 Q 366.22,682.52 364.25,681.93 L 326.22,670.65 Q 325.83,670.53 325.25,670.61 L 322.54,671.00 L 322.49,669.99 A 0.72,0.65 9.4 0 0 322.01,669.39 L 319.26,668.41 A 0.72,0.67 14.4 0 1 318.79,667.68 Q 318.93,666.76 320.50,666.75 Q 343.12,666.67 366.69,666.75 A 1.33,1.32 78.0 0 1 367.88,667.53 Q 368.96,669.93 371.00,670.96 Z"/>
<path fill="#3b3a3b" d="M 371.00,670.96 Q 373.42,671.31 372.81,674.01 Q 371.48,679.83 370.18,684.31 Q 369.62,686.23 367.70,685.67 Q 344.77,679.01 323.33,672.63 Q 322.16,672.28 322.54,671.00 L 325.25,670.61 Q 325.83,670.53 326.22,670.65 L 364.25,681.93 Q 366.22,682.52 366.61,680.68 L 368.26,672.81 A 1.46,0.84 88.6 0 1 368.70,672.00 Q 369.73,671.24 371.00,670.96 Z"/>
<path fill="#383738" d="M 456.25,675.71 Q 459.17,675.56 459.36,678.24 Q 459.80,684.78 457.52,691.69 A 1.98,1.98 6.2 0 1 455.84,693.04 Q 449.52,693.72 442.75,693.56 Q 428.36,693.24 420.00,693.50 Q 411.09,693.78 404.96,688.00 Q 404.92,687.40 405.48,687.57 Q 408.13,688.38 410.81,689.08 Q 413.40,689.75 416.26,689.84 Q 433.15,690.34 450.33,689.99 Q 453.47,689.93 454.41,686.94 Q 455.46,683.59 455.47,678.50 Q 455.47,676.98 456.25,675.71 Z"/>
<path fill="#383738" d="M 672.25,677.21 Q 675.63,677.38 675.10,680.67 Q 674.11,686.83 673.15,693.74 A 1.22,1.21 2.3 0 1 672.02,694.78 Q 662.54,695.39 652.77,695.20 Q 642.42,695.00 640.25,694.54 Q 633.81,693.18 629.00,688.04 Q 637.79,691.14 641.25,691.25 Q 653.87,691.67 666.50,691.45 Q 669.55,691.40 669.95,688.49 Q 670.66,683.38 671.23,678.25 Q 671.33,677.34 672.25,677.21 Z"/>
<path fill="#000000" d="M 929.72,798.94 L 955.69,799.00 A 0.56,0.55 -0.0 0 1 956.25,799.55 L 956.25,810.33 A 0.68,0.68 -45.0 0 1 955.57,811.01 Q 935.50,810.86 916.25,811.25 Q 914.89,811.28 910.94,810.86 A 0.59,0.56 2.8 0 1 910.40,810.30 L 910.30,801.36 Q 910.28,799.75 911.60,798.53 Q 921.96,788.97 931.99,778.99 Q 934.02,776.97 935.76,774.71 Q 940.15,769.00 938.25,762.75 Q 937.27,759.53 934.26,758.11 Q 931.99,757.03 928.61,757.19 Q 921.29,757.52 915.68,762.94 A 0.83,0.82 -40.5 0 1 914.44,762.85 L 908.80,755.32 A 1.10,1.08 -39.3 0 1 908.96,753.86 Q 916.65,746.98 926.24,745.43 Q 931.93,744.50 937.30,745.79 Q 942.92,747.14 946.88,750.68 Q 953.41,756.51 953.00,766.00 Q 952.77,771.45 949.96,776.51 Q 948.13,779.79 943.29,784.88 Q 936.82,791.69 929.42,798.14 Q 928.50,798.94 929.72,798.94 Z"/>
<path fill="#000000" d="M 997.57,776.90 Q 996.34,777.40 997.58,777.89 Q 1006.53,781.41 1008.92,788.82 Q 1011.22,795.99 1007.19,802.78 Q 1002.91,809.97 993.00,812.00 Q 976.76,815.33 963.39,805.34 A 1.35,1.33 35.4 0 1 963.07,803.52 L 968.21,795.91 A 0.51,0.49 35.0 0 1 968.91,795.80 Q 977.43,801.86 987.75,800.75 Q 991.22,800.38 993.44,798.11 Q 995.62,795.89 995.82,792.76 Q 996.00,789.81 994.12,787.56 Q 992.65,785.81 989.69,785.01 Q 984.42,783.59 978.05,784.09 A 0.97,0.97 87.6 0 1 977.00,783.12 L 977.00,773.86 A 0.91,0.91 1.8 0 1 977.97,772.95 Q 982.32,773.23 985.82,772.61 Q 989.69,771.93 991.64,769.14 Q 993.53,766.44 992.92,763.07 Q 992.31,759.67 989.23,758.15 Q 987.06,757.07 983.61,757.10 Q 976.06,757.15 970.41,762.23 A 0.52,0.49 -37.7 0 1 969.64,762.16 L 964.28,753.76 A 0.63,0.56 -35.9 0 1 964.45,752.99 Q 975.30,744.15 989.49,745.34 Q 999.73,746.20 1004.94,754.06 Q 1008.45,759.38 1006.46,766.29 Q 1004.19,774.20 997.57,776.90 Z"/>
<path fill="#000000" d="M 516.93,797.28 Q 504.21,796.61 491.49,797.23 A 0.77,0.76 9.4 0 0 490.81,797.71 L 486.03,810.18 A 1.27,1.24 -79.4 0 1 484.86,811.00 L 471.81,811.00 A 0.60,0.59 -79.0 0 1 471.26,810.18 L 496.73,747.94 A 1.47,1.40 -77.9 0 1 498.06,747.03 L 511.06,747.16 A 0.80,0.75 78.5 0 1 511.75,747.65 L 537.48,810.34 A 0.48,0.48 78.8 0 1 537.04,811.00 L 523.21,811.00 A 0.82,0.80 -10.5 0 1 522.45,810.49 L 517.60,797.79 A 0.79,0.75 80.9 0 0 516.93,797.28 ZM 501.19,785.77 Q 506.21,786.14 512.22,785.97 A 0.45,0.44 79.6 0 0 512.63,785.37 L 504.30,762.48 Q 504.12,761.99 503.94,762.48 L 495.36,785.65 A 0.30,0.30 5.7 0 0 495.69,786.05 Q 498.58,785.58 501.19,785.77 Z"/>
<path fill="#000000" d="M 561.03,769.04 Q 560.25,767.97 560.25,769.29 L 560.01,810.25 A 0.53,0.51 -90.0 0 1 559.50,810.78 L 546.76,810.98 A 0.53,0.50 89.5 0 1 546.25,810.45 L 546.25,747.50 A 0.50,0.50 -45.0 0 1 546.75,747.00 L 557.49,747.00 A 3.11,3.08 71.8 0 1 559.99,748.28 L 589.60,788.98 Q 590.44,790.14 590.44,788.71 L 590.56,747.56 A 0.51,0.51 -0.0 0 1 591.07,747.05 L 603.69,747.05 A 0.51,0.50 90.0 0 1 604.19,747.56 L 604.25,810.19 A 0.81,0.81 45.0 0 1 603.44,811.00 L 591.90,811.00 A 1.03,1.00 -17.2 0 1 591.07,810.58 L 561.03,769.04 Z"/>
<path fill="#000000" d="M 633.03,769.04 Q 632.25,767.97 632.25,769.29 L 632.01,810.25 A 0.53,0.52 90.0 0 1 631.49,810.78 L 618.82,810.96 A 0.52,0.50 89.5 0 1 618.31,810.44 L 618.31,747.56 A 0.51,0.51 -0.0 0 1 618.82,747.05 L 629.88,747.02 A 2.39,2.29 71.2 0 1 631.79,748.01 L 661.69,789.07 Q 662.43,790.09 662.43,788.83 L 662.51,747.52 A 0.52,0.52 -0.0 0 1 663.03,747.00 L 675.68,747.05 A 0.52,0.51 0.6 0 1 676.19,747.56 L 676.25,810.19 A 0.81,0.81 45.0 0 1 675.44,811.00 L 663.90,811.00 A 1.03,1.00 -17.2 0 1 663.07,810.58 L 633.03,769.04 Z"/>
<path fill="#000000" d="M 704.65,797.79 L 699.87,810.16 A 1.37,1.32 10.4 0 1 698.61,811.00 L 685.65,811.00 A 0.54,0.53 -78.8 0 1 685.16,810.26 L 710.69,747.89 A 1.39,1.31 -77.8 0 1 711.94,747.03 L 725.06,747.16 A 0.80,0.75 78.5 0 1 725.75,747.65 L 751.54,810.46 A 0.39,0.39 78.9 0 1 751.18,811.00 L 737.35,811.00 A 1.19,1.15 78.7 0 1 736.27,810.25 L 731.38,797.77 A 0.81,0.77 -8.3 0 0 730.68,797.28 Q 717.99,796.56 705.30,797.29 A 0.78,0.71 -79.9 0 0 704.65,797.79 ZM 717.94,762.50 L 709.48,785.29 A 0.52,0.52 10.4 0 0 709.97,786.00 L 726.29,786.00 A 0.45,0.45 79.6 0 0 726.71,785.39 L 718.30,762.50 Q 718.12,762.02 717.94,762.50 Z"/>
<path fill="#000000" d="M 800.57,777.11 Q 812.48,781.18 811.45,794.75 Q 810.54,806.83 798.74,809.73 Q 793.46,811.02 788.00,811.02 Q 774.88,811.00 760.77,811.00 A 0.52,0.52 -0.0 0 1 760.25,810.48 L 760.43,747.69 A 0.53,0.52 -1.1 0 1 760.94,747.17 Q 779.05,746.58 790.50,747.25 Q 793.70,747.44 797.28,748.86 Q 800.86,750.28 803.17,752.45 Q 807.83,756.84 807.97,763.35 Q 808.06,767.62 806.25,770.74 Q 804.32,774.06 800.49,776.19 Q 799.49,776.74 800.57,777.11 ZM 791.82,760.93 Q 789.57,759.23 786.76,759.04 Q 780.53,758.62 774.32,759.26 A 0.58,0.56 -2.3 0 0 773.80,759.81 L 773.75,772.36 A 0.63,0.62 1.0 0 0 774.36,772.98 Q 781.26,773.14 787.25,772.74 Q 794.25,772.27 794.03,765.26 Q 793.95,762.53 791.82,760.93 ZM 795.20,786.08 Q 793.04,784.34 790.25,784.18 Q 782.34,783.71 774.43,784.16 A 0.55,0.54 -1.2 0 0 773.91,784.69 L 773.77,798.24 A 0.78,0.75 -0.0 0 0 774.56,799.00 Q 783.13,798.97 790.75,798.70 Q 796.26,798.50 797.54,793.31 Q 798.64,788.84 795.20,786.08 Z"/>
<path fill="#000000" d="M 860.93,797.28 Q 848.21,796.61 835.49,797.23 A 0.77,0.76 9.4 0 0 834.81,797.71 L 830.03,810.17 A 1.30,1.24 -79.0 0 1 828.86,811.00 L 815.81,811.00 A 0.60,0.59 -79.0 0 1 815.26,810.18 L 840.73,747.94 A 1.47,1.40 -77.9 0 1 842.06,747.03 L 855.06,747.16 A 0.78,0.75 79.4 0 1 855.75,747.65 L 881.45,810.52 A 0.35,0.35 -10.7 0 1 881.12,811.00 L 867.25,811.00 A 0.79,0.73 -9.7 0 1 866.53,810.53 L 861.60,797.78 A 0.78,0.76 80.9 0 0 860.93,797.28 ZM 845.68,785.96 Q 850.46,786.14 856.17,785.97 A 0.48,0.48 79.1 0 0 856.61,785.32 L 848.44,762.57 Q 848.17,761.82 847.89,762.57 L 839.49,785.47 A 0.33,0.33 -80.6 0 0 839.81,785.92 Q 842.75,785.85 845.68,785.96 Z"/>
<path fill="#f8f8f8" d="M 791.82,760.93 Q 793.95,762.53 794.03,765.26 Q 794.25,772.27 787.25,772.74 Q 781.26,773.14 774.36,772.98 A 0.63,0.62 1.0 0 1 773.75,772.36 L 773.80,759.81 A 0.58,0.56 -2.3 0 1 774.32,759.26 Q 780.53,758.62 786.76,759.04 Q 789.57,759.23 791.82,760.93 Z"/>
<path fill="#f8f8f8" d="M 717.94,762.50 Q 718.12,762.02 718.30,762.50 L 726.71,785.39 A 0.45,0.45 79.6 0 1 726.29,786.00 L 709.97,786.00 A 0.52,0.52 10.4 0 1 709.48,785.29 L 717.94,762.50 Z"/>
<path fill="#f8f8f8" d="M 501.19,785.77 Q 498.58,785.58 495.69,786.05 A 0.30,0.30 5.7 0 1 495.36,785.65 L 503.94,762.48 Q 504.12,761.99 504.30,762.48 L 512.63,785.37 A 0.45,0.44 79.6 0 1 512.22,785.97 Q 506.21,786.14 501.19,785.77 Z"/>
<path fill="#f8f8f8" d="M 845.68,785.96 Q 842.75,785.85 839.81,785.92 A 0.33,0.33 -80.6 0 1 839.49,785.47 L 847.89,762.57 Q 848.17,761.82 848.44,762.57 L 856.61,785.32 A 0.48,0.48 79.1 0 1 856.17,785.97 Q 850.46,786.14 845.68,785.96 Z"/>
<path fill="#f8f8f8" d="M 795.20,786.08 Q 798.64,788.84 797.54,793.31 Q 796.26,798.50 790.75,798.70 Q 783.13,798.97 774.56,799.00 A 0.78,0.75 -0.0 0 1 773.77,798.24 L 773.91,784.69 A 0.55,0.54 -1.2 0 1 774.43,784.16 Q 782.34,783.71 790.25,784.18 Q 793.04,784.34 795.20,786.08 Z"/>
</svg>
