<svg xmlns="http://www.w3.org/2000/svg" viewBox="0 0 375 375"><defs><style>.cls-1{fill:#004aac;}.cls-2{fill:#fefefe;}.cls-3{fill:#f7f9fc;}.cls-4{fill:#e6edf6;}.cls-5{fill:#f1f5fa;}.cls-6{fill:#e7edf7;}.cls-7{fill:#ecf1f8;}.cls-8{fill:#eef3f9;}.cls-9{fill:#eaf0f8;}.cls-10{fill:#f4f7fb;}.cls-11{fill:#e3ebf5;}.cls-12{fill:#cedcef;}.cls-13{fill:#074eae;}.cls-14{fill:#064eae;}.cls-15{fill:#054dae;}</style></defs><g id="Layer_2" data-name="Layer 2"><g id="Layer_1-2" data-name="Layer 1"><path class="cls-1" d="M.94.08Q186.15.08,371.37,0c3,0,3.63.6,3.63,3.63q-.15,185.22-.08,370.44-184.74,0-369.46.09c-3.75,0-4.62-.86-4.61-4.61Q1,184.81.94.08Zm196.84,196c1.32-.87,2.58-2.21,4.31-1.07,1.1.73,1.94,1.21,2.51-.44s-.71-1.89-1.72-2.27c-2.68-1-4.19,1.17-6.09,2.29.28-1.7-.55-2.22-2.13-2.09s-1.37,1.17-1.37,2.17c0,5,0,10,0,15,0,1.21-.65,2.87,1.7,2.93s1.73-1.53,1.82-2.79C197.16,205.2,196,200.54,197.78,196.08ZM62.55,203.56c-.85-1.52-.22-2.95,0-4.35,2.58-19,8.07-37.44,11.5-56.29.4-2.15,1-4.37-1.84-5.26s-3.26,1.65-3.94,3.36c-2.57,6.5-3.8,13.38-5.61,20.1-5.16,19.15-9.3,38.48-9.54,58.43a11.75,11.75,0,0,0,.74,5.49c1,2.14,2.81,2.6,4.93,2.66s2.47-1.66,2.91-3.21c1.71-6.1,3.53-12.18,5.11-18.32a172.38,172.38,0,0,1,13.61-36.63c1.36-2.62,2.62-5.43,6.09-7.85-1.61,6.78-3.1,12.53-4.33,18.33-1.37,6.43-3.37,12.79-2.74,19.52a6.26,6.26,0,0,0,5.22,6c2.91.62,3.79-2,4.7-3.92,3.77-8.12,7.51-16.25,11.1-24.45,5.63-12.87,10.93-25.91,18.15-38,1.44-2.43,2.8-5.11,6.06-7-1.12,6.45-3.21,11.9-5.1,17.38-7,20.23-14,40.45-16.46,61.88-.75,6.64-1.42,13.39,1,20,1.39,3.78,3.61,6.44,7.86,7.05s6.87-1.58,9.24-4.5c3.9-4.81,5.83-10.66,8.45-16.15.37-.77.8-1.69-.41-2.17a1.76,1.76,0,0,0-2.28.73c-.62.93-1.24,1.87-1.78,2.85-2.2,4-3.86,8.39-7.08,11.8-1.55,1.66-2.76,4.73-5.4,3.82s-2.49-4.05-2.59-6.49a116.71,116.71,0,0,1,2-24.54c2.88-16.87,8.74-32.91,13.46-49.27,2.06-7.16,4.46-14.26,4.92-21.78.19-3.25-.83-6.16-3.92-7.41s-4.48,1.71-5.93,3.5A92,92,0,0,0,109.09,148c-6.37,13.76-12.43,27.67-18.68,41.49-.6,1.33-1,3-3.13,3.69.26-1.78.41-3.23.68-4.66,1.48-8,2.93-15.91,4.52-23.84a11.94,11.94,0,0,0-.28-5.52,5.45,5.45,0,0,0-4.46-4c-2.09-.46-3.56.69-4.69,2.35-1,1.44-2,2.83-2.93,4.32-6.91,11.76-11.77,24.38-15.67,37.41C64,200.66,64.12,202.44,62.55,203.56Zm224-2.6-1.66-.77c-4.17-1.85-7.9-1.28-10.12,1.7a6.61,6.61,0,0,0-.23,8.32c2,2.84,5.57,3.54,9.78,1.91,1.07-.42,1.73-1,3,.15,1,.92,2.89.6,2.79-1.81-.16-3.86-.15-7.72-.21-11.58-.06-3-1.11-5.56-4.21-6.3-3.57-.85-7.19-.92-10.25,1.75-.77.67-1,1.31-.13,2.15s1.32.92,2-.12a5.3,5.3,0,0,1,6.83-2.28C287,195.23,286.74,198,286.58,201Zm-66.42-.46c-1,.32-1.52-.35-2.18-.61-3.78-1.51-7.35-.84-9.48,1.93a6.64,6.64,0,0,0-.36,8.31c1.85,2.79,5.45,3.63,9.4,2.19,1.22-.44,2.05-1.11,3.53,0,1.3.93,2.82.4,2.73-1.9-.14-3.61,0-7.22-.12-10.83-.08-3-.71-5.91-4-6.85-3.54-1-7.14-1.06-10.27,1.43-.8.63-1.52,1.31-.41,2.4s1.63.34,2.26-.52a5.25,5.25,0,0,1,6.63-1.91C220.68,195.31,220.28,198.06,220.16,200.5Zm-49.38-2.05c0,4.11.05,8.22,0,12.33,0,1.63.86,1.72,2.12,1.77,1.41,0,1.66-.64,1.62-1.82-.05-1.62,0-3.24,0-4.86,0-7.25,0-7.18,7.08-7.31,1.73,0,4.84,1,4.88-.87s-3.06-.83-4.74-.85c-7.55-.13-7.47-.06-7.27-7.49,0-1.95.59-2.6,2.54-2.52,3.36.14,6.73,0,10.09,0,.75,0,1.59,0,1.69-1,.12-1.34-.9-1.24-1.77-1.24-4.73,0-9.47.05-14.2,0-1.7,0-2.07.73-2,2.25C170.83,190.72,170.77,194.58,170.78,198.45Zm-23.15,4c0,2.62,0,5.23,0,7.85,0,1.18,0,2.17,1.67,2.23,1.86.08,1.95-.94,1.94-2.33,0-3.61-.1-7.23.06-10.83.15-3.21,2-5.09,5.24-5.09s4.42,2.23,4.43,5.22q0,5.42,0,10.83c0,1.12-.18,2.24,1.61,2.2,1.49,0,1.95-.61,1.93-2-.06-3.86.14-7.73-.11-11.58-.39-6.11-5.55-8.79-10.93-5.74-1.23.69-1.62,1.33-2.83-.36-.85-1.17-3.09-.85-3,1.77S147.63,199.88,147.63,202.49Zm82.28,0c0,2.62,0,5.23,0,7.85,0,1.18,0,2.17,1.67,2.23,1.87.08,2-.94,1.94-2.33,0-3.61-.09-7.23.07-10.83.14-3.22,2-5.09,5.24-5.09s4.42,2.23,4.42,5.22q0,5.42,0,10.83c0,1.13-.17,2.24,1.62,2.2,1.48,0,1.94-.62,1.92-2-.06-3.86.15-7.73-.1-11.58-.39-6.11-5.55-8.79-10.94-5.74-1.23.69-1.61,1.33-2.83-.36-.84-1.17-3.09-.85-3,1.77S229.91,199.88,229.91,202.49Zm32.48,10.9a29.52,29.52,0,0,0,4.15-1.24c1.22-.57,3.64-.86,3-2.46-.78-1.87-2.23.29-3.31.65-4.35,1.47-8.38-.14-9.81-4.14-1.77-5,.3-10.73,4.38-12.08a5.31,5.31,0,0,1,5,.55c.68.49,1.14,1.28,1.78,1.84a1.76,1.76,0,0,0,2.39.19c.66-.65-.17-1.36-.62-1.88a5.61,5.61,0,0,0-1.7-1.42,11.05,11.05,0,0,0-11,.27c-3.89,2.33-4.85,6.07-4.42,10.32.43,4.09,2.52,7.25,6.45,8.27,2.7.69,2.86,4,5.72,4.35.78.1.14,1.56-.74,1.89a43.19,43.19,0,0,1-4.21,1.14c3.34.85,6.09,1.39,7.36-1.65C268.09,214.75,264.7,214.77,262.39,213.39ZM142.45,202.56c0-6-4.31-10.4-10.25-10.38a10,10,0,0,0-10.26,10.4,10.24,10.24,0,0,0,10.29,10.48A10.12,10.12,0,0,0,142.45,202.56Zm172.31,10.49c4.25.06,7.06-1.75,7.69-4.81s-1.15-5.51-5.29-7c-1.4-.5-2.83-.93-4.22-1.45s-2.71-1.4-2.4-3.26,1.73-2.63,3.48-2.74c2.12-.13,3.91.44,5,2.53a1.25,1.25,0,0,0,1.89.51c.7-.44.37-1.18.05-1.65-2-3-5.09-3.32-8.29-2.91a5.28,5.28,0,0,0-5,4.79c-.46,3.32,1.61,5,4.34,6.13,1.73.69,3.54,1.17,5.25,1.89,1.47.63,2.49,1.73,2.09,3.5a3.27,3.27,0,0,1-3.25,2.58c-2.52.24-4.82-.28-6.09-2.66-.66-1.25-1.6-1.91-2.58-1.21-1.28.91,0,2,.55,2.8C309.71,212.43,312.33,212.81,314.76,213.05Zm-13.45-10.42c0-2.74,0-5.47,0-8.2,0-1.41-.56-2-2-2s-1.48,1-1.48,2c0,5.34,0,10.69,0,16,0,1.2,0,2.15,1.71,2.11s1.81-.86,1.8-2.13C301.3,207.84,301.32,205.23,301.31,202.63Zm.33-16.57a2,2,0,0,0-2.24-1.9,2.11,2.11,0,0,0,.27,4.22A2.08,2.08,0,0,0,301.64,186.06Z"/><path class="cls-2" d="M.94.08q0,184.74-.09,369.47c0,3.75.86,4.62,4.61,4.61q184.73-.17,369.46-.09c-.68,1.55-2,.7-3,.7q-27.66.09-55.34.05-156.51,0-313,.07c-2.81,0-3.44-.63-3.44-3.44q.12-184,.12-368C.24,2.35-.63.91.94.08Z"/><path class="cls-3" d="M62.55,203.56c1.57-1.12,1.46-2.9,1.9-4.36,3.9-13,8.76-25.65,15.67-37.41.88-1.49,2-2.88,2.93-4.32,1.13-1.66,2.6-2.81,4.69-2.35a5.45,5.45,0,0,1,4.46,4,11.94,11.94,0,0,1,.28,5.52c-1.59,7.93-3,15.89-4.52,23.84-.27,1.43-.42,2.88-.68,4.66,2.13-.69,2.53-2.36,3.13-3.69,6.25-13.82,12.31-27.73,18.68-41.49a92,92,0,0,1,11.46-19.18c1.45-1.79,2.91-4.73,5.93-3.5s4.11,4.16,3.92,7.41c-.46,7.52-2.86,14.62-4.92,21.78-4.72,16.36-10.58,32.4-13.46,49.27a116.71,116.71,0,0,0-2,24.54c.1,2.44,0,5.6,2.59,6.49s3.85-2.16,5.4-3.82c3.22-3.41,4.88-7.77,7.08-11.8.54-1,1.16-1.92,1.78-2.85a1.76,1.76,0,0,1,2.28-.73c1.21.48.78,1.4.41,2.17-2.62,5.49-4.55,11.34-8.45,16.15-2.37,2.92-5.1,5.09-9.24,4.5s-6.47-3.27-7.86-7.05c-2.41-6.57-1.74-13.32-1-20,2.42-21.43,9.47-41.65,16.46-61.88,1.89-5.48,4-10.93,5.1-17.38-3.26,1.91-4.62,4.59-6.06,7-7.22,12.1-12.52,25.14-18.15,38-3.59,8.2-7.33,16.33-11.1,24.45-.91,2-1.79,4.54-4.7,3.92a6.26,6.26,0,0,1-5.22-6c-.63-6.73,1.37-13.09,2.74-19.52,1.23-5.8,2.72-11.55,4.33-18.33-3.47,2.42-4.73,5.23-6.09,7.85a172.38,172.38,0,0,0-13.61,36.63c-1.58,6.14-3.4,12.22-5.11,18.32-.44,1.55-.65,3.26-2.91,3.21s-3.9-.52-4.93-2.66a11.75,11.75,0,0,1-.74-5.49c.24-20,4.38-39.28,9.54-58.43,1.81-6.72,3-13.6,5.61-20.1.68-1.71,1-4.28,3.94-3.36s2.24,3.11,1.84,5.26c-3.43,18.85-8.92,37.27-11.5,56.29C62.33,200.61,61.7,202,62.55,203.56Z"/><path class="cls-4" d="M286.58,201c.16-3,.43-5.73-2.39-6.88a5.3,5.3,0,0,0-6.83,2.28c-.68,1-1.21.87-2,.12s-.64-1.48.13-2.15c3.06-2.67,6.68-2.6,10.25-1.75,3.1.74,4.15,3.3,4.21,6.3.06,3.86.05,7.72.21,11.58.1,2.41-1.76,2.73-2.79,1.81-1.29-1.15-1.95-.57-3-.15-4.21,1.63-7.82.93-9.78-1.91a6.61,6.61,0,0,1,.23-8.32c2.22-3,5.95-3.55,10.12-1.7Zm-4.77,10.29a5.12,5.12,0,0,0,4.91-5.41,4.95,4.95,0,1,0-9.86.53A4.73,4.73,0,0,0,281.81,211.25Z"/><path class="cls-4" d="M220.16,200.5c.12-2.44.52-5.19-2.3-6.4a5.25,5.25,0,0,0-6.63,1.91c-.63.86-1.13,1.62-2.26.52s-.39-1.77.41-2.4c3.13-2.49,6.73-2.44,10.27-1.43,3.32.94,3.95,3.86,4,6.85.1,3.61,0,7.22.12,10.83.09,2.3-1.43,2.83-2.73,1.9-1.48-1.07-2.31-.4-3.53,0-3.95,1.44-7.55.6-9.4-2.19a6.64,6.64,0,0,1,.36-8.31c2.13-2.77,5.7-3.44,9.48-1.93C218.64,200.15,219.16,200.82,220.16,200.5Zm-4.81,10.75a5.17,5.17,0,0,0,5-5.34,5.06,5.06,0,0,0-5-5,5.18,5.18,0,0,0-5,5.41A4.85,4.85,0,0,0,215.35,211.25Z"/><path class="cls-5" d="M170.78,198.45c0-3.87.05-7.73,0-11.59,0-1.52.33-2.28,2-2.25,4.73.07,9.47,0,14.2,0,.87,0,1.89-.1,1.77,1.24-.1,1-.94,1-1.69,1-3.36,0-6.73.11-10.09,0-1.95-.08-2.49.57-2.54,2.52-.2,7.43-.28,7.36,7.27,7.49,1.68,0,4.79-.94,4.74.85s-3.15.84-4.88.87c-7.08.13-7.08.06-7.08,7.31,0,1.62,0,3.24,0,4.86,0,1.18-.21,1.87-1.62,1.82-1.26-.05-2.15-.14-2.12-1.77C170.83,206.67,170.78,202.56,170.78,198.45Z"/><path class="cls-6" d="M147.63,202.49c0-2.61.05-5.23,0-7.84s2.18-2.94,3-1.77c1.21,1.69,1.6,1.05,2.83.36,5.38-3.05,10.54-.37,10.93,5.74.25,3.85.05,7.72.11,11.58,0,1.4-.44,2-1.93,2-1.79,0-1.61-1.08-1.61-2.2q0-5.42,0-10.83c0-3-1-5.23-4.43-5.22s-5.09,1.88-5.24,5.09c-.16,3.6-.09,7.22-.06,10.83,0,1.39-.08,2.41-1.94,2.33-1.69-.06-1.68-1-1.67-2.23C147.64,207.72,147.63,205.11,147.63,202.49Z"/><path class="cls-6" d="M229.91,202.49c0-2.61,0-5.23,0-7.84s2.19-2.94,3-1.77c1.22,1.69,1.6,1.05,2.83.36,5.39-3.05,10.55-.37,10.94,5.74.25,3.85,0,7.72.1,11.58,0,1.39-.44,2-1.92,2-1.79,0-1.62-1.07-1.62-2.2q0-5.42,0-10.83c0-3-1-5.23-4.42-5.22s-5.1,1.87-5.24,5.09c-.16,3.6-.1,7.22-.07,10.83,0,1.39-.07,2.41-1.94,2.33-1.68-.06-1.68-1-1.67-2.23C229.92,207.72,229.91,205.11,229.91,202.49Z"/><path class="cls-7" d="M262.39,213.39c2.31,1.38,5.7,1.36,4.35,4.6-1.27,3-4,2.5-7.36,1.65a43.19,43.19,0,0,0,4.21-1.14c.88-.33,1.52-1.79.74-1.89-2.86-.34-3-3.66-5.72-4.35-3.93-1-6-4.18-6.45-8.27-.43-4.25.53-8,4.42-10.32a11.05,11.05,0,0,1,11-.27,5.61,5.61,0,0,1,1.7,1.42c.45.52,1.28,1.23.62,1.88a1.76,1.76,0,0,1-2.39-.19c-.64-.56-1.1-1.35-1.78-1.84a5.31,5.31,0,0,0-5-.55c-4.08,1.35-6.15,7.12-4.38,12.08,1.43,4,5.46,5.61,9.81,4.14,1.08-.36,2.53-2.52,3.31-.65.66,1.6-1.76,1.89-3,2.46A29.52,29.52,0,0,1,262.39,213.39Z"/><path class="cls-8" d="M142.45,202.56a10.12,10.12,0,0,1-10.22,10.5,10.24,10.24,0,0,1-10.29-10.48,10,10,0,0,1,10.26-10.4C138.14,192.16,142.44,196.52,142.45,202.56Zm-3.82-.11c0-5.93-2.34-8.88-6.8-8.65s-6.4,3.65-6.05,10.16c.27,5,2.76,7.59,7,7.3C136.77,211,138.65,208.14,138.63,202.45Z"/><path class="cls-9" d="M314.76,213.05c-2.43-.24-5.05-.62-6.77-2.92-.57-.77-1.83-1.89-.55-2.8,1-.7,1.92,0,2.58,1.21,1.27,2.38,3.57,2.9,6.09,2.66a3.27,3.27,0,0,0,3.25-2.58c.4-1.77-.62-2.87-2.09-3.5-1.71-.72-3.52-1.2-5.25-1.89-2.73-1.11-4.8-2.81-4.34-6.13a5.28,5.28,0,0,1,5-4.79c3.2-.41,6.26-.09,8.29,2.91.32.47.65,1.21-.05,1.65a1.25,1.25,0,0,1-1.89-.51c-1.06-2.09-2.85-2.66-5-2.53-1.75.11-3.15.82-3.48,2.74s.9,2.71,2.4,3.26,2.82.95,4.22,1.45c4.14,1.45,5.93,3.81,5.29,7S319,213.11,314.76,213.05Z"/><path class="cls-10" d="M197.78,196.08c-1.78,4.46-.62,9.12-1,13.68-.09,1.26.5,2.85-1.82,2.79s-1.68-1.72-1.7-2.93c-.05-5,0-10,0-15,0-1-.1-2,1.37-2.17s2.41.39,2.13,2.09C196.09,195.77,197,195.87,197.78,196.08Z"/><path class="cls-11" d="M301.31,202.63c0,2.6,0,5.21,0,7.82,0,1.27-.2,2.1-1.8,2.13s-1.71-.91-1.71-2.11c0-5.34,0-10.69,0-16,0-1,0-2,1.48-2s2,.58,2,2C301.29,197.16,301.31,199.89,301.31,202.63Z"/><path class="cls-12" d="M197.78,196.08c-.75-.21-1.69-.31-1-1.49,1.9-1.12,3.41-3.32,6.09-2.29,1,.38,2.27.67,1.72,2.27s-1.41,1.17-2.51.44C200.36,193.87,199.1,195.21,197.78,196.08Z"/><path class="cls-11" d="M301.64,186.06a2.08,2.08,0,0,1-2,2.32,2.11,2.11,0,0,1-.27-4.22A2,2,0,0,1,301.64,186.06Z"/><path class="cls-13" d="M281.81,211.25a4.73,4.73,0,0,1-4.95-4.88,4.94,4.94,0,1,1,4.95,4.88Z"/><path class="cls-14" d="M215.35,211.25a4.85,4.85,0,0,1-4.95-4.95,5.18,5.18,0,0,1,5-5.41,5.06,5.06,0,0,1,5,5A5.17,5.17,0,0,1,215.35,211.25Z"/><path class="cls-15" d="M138.63,202.45c0,5.69-1.86,8.53-5.86,8.81-4.23.29-6.72-2.31-7-7.3-.35-6.51,1.69-9.93,6.05-10.16S138.61,196.52,138.63,202.45Z"/></g></g></svg>