<svg xmlns="http://www.w3.org/2000/svg" xmlns:xlink="http://www.w3.org/1999/xlink" viewBox="0 0 547.62 198.81"><defs><style>.cls-1{fill:url(#linear-gradient);}.cls-2{fill:url(#linear-gradient-2);}.cls-3{fill:url(#linear-gradient-3);}.cls-4{fill:url(#linear-gradient-4);}.cls-5{fill:url(#linear-gradient-5);}.cls-6{fill:url(#linear-gradient-6);}.cls-7{fill:url(#linear-gradient-7);}</style><linearGradient id="linear-gradient" y1="99.4" x2="198.81" y2="99.4" gradientUnits="userSpaceOnUse"><stop offset="0" stop-color="#f4adbd"/><stop offset="1" stop-color="#f9c2a0"/></linearGradient><linearGradient id="linear-gradient-2" x1="235.22" y1="99.4" x2="280.16" y2="99.4" xlink:href="#linear-gradient"/><linearGradient id="linear-gradient-3" x1="298.64" y1="99.4" x2="336.48" y2="99.4" xlink:href="#linear-gradient"/><linearGradient id="linear-gradient-4" x1="357.79" y1="99.4" x2="396.91" y2="99.4" xlink:href="#linear-gradient"/><linearGradient id="linear-gradient-5" x1="411.31" y1="99.4" x2="462.41" y2="99.4" xlink:href="#linear-gradient"/><linearGradient id="linear-gradient-6" x1="480.67" y1="99.4" x2="519.79" y2="99.4" xlink:href="#linear-gradient"/><linearGradient id="linear-gradient-7" x1="538.69" y1="99.4" x2="547.62" y2="99.4" xlink:href="#linear-gradient"/></defs><title>web version</title><g id="Layer_2" data-name="Layer 2"><g id="Layer_1-2" data-name="Layer 1"><path class="cls-1" d="M172.17,0H26.63A26.63,26.63,0,0,0,0,26.63V172.17a26.64,26.64,0,0,0,26.63,26.64H172.17a26.64,26.64,0,0,0,26.64-26.64V26.63A26.64,26.64,0,0,0,172.17,0Zm-63,146.67c-2.24,3.22-4.62,6.34-6.91,9.53-.47.67-1,.65-1.68.48-6.38-1.57-12.23-4.18-17.12-8.71-4-3.67-7.94-7.31-11.91-11-.2-.19-.37-.41-.45-.49a53.92,53.92,0,0,0,6.34-1.9c5.21-2.27,8.11-6.48,8.89-12a63.19,63.19,0,0,0,.21-8.49,1.36,1.36,0,0,0-.57-1C79.05,109.49,75,103.6,72.65,96.4a34.39,34.39,0,0,1-1.29-16,5.14,5.14,0,0,0-.15-1.28h-.33c-.1.26-.21.51-.29.78-4.7,15.14-13.17,27.63-26.05,37A47.91,47.91,0,0,0,32.24,131C26.08,141,22,151.9,19,163.21c-.07.27-.08.55-.13.88a6.21,6.21,0,0,0,.7,0,33.94,33.94,0,0,1,18.29,4c5.29,2.71,10.88,4.87,16.86,5.39,5.48.48,11,.61,16.49.71,3.78.07,7.56-.17,11.33-.26l0,.15c-2.23.5-4.45,1.07-6.69,1.51-4.24.82-8.46,1.72-12.73,2.29a52,52,0,0,1-18.35-1A93.47,93.47,0,0,1,35.39,174a8.89,8.89,0,0,1-2.71-1.54,13.42,13.42,0,0,0-7.37-2.75,50,50,0,0,0-11.85.18c-.17,0-.34,0-.71,0,.28-1.71.49-3.37.81-5a115.7,115.7,0,0,1,9-27.93c4.06-8.39,9.13-16,16.61-21.78a107.74,107.74,0,0,0,12-10.07A79.6,79.6,0,0,0,68.72,77.66a2,2,0,0,0,0-1.71,12.07,12.07,0,0,1,1.1-11.74,13.8,13.8,0,0,1,11.07-7,9.89,9.89,0,0,1,8.22,3,1.88,1.88,0,0,0,1.13.65A18.74,18.74,0,0,1,103,66.64a30.26,30.26,0,0,1,8.76,16.87c1.34,7.24.71,14.27-2.75,20.9a20.8,20.8,0,0,1-6.78,7.71,1.59,1.59,0,0,0-.69,1.14c.32,4.19.64,8.39,1.14,12.57a8.78,8.78,0,0,0,5.31,7c2,1,4.21,1.6,6.4,2.41A38.39,38.39,0,0,1,109.16,146.67ZM129.54,78.3c-7.23-4.07-11.68-10.36-14.23-18.06-2.93-8.84-3.11-17.76.31-26.53,2.25-5.77,6-10.32,12.1-12.25,7.27-2.31,13.8-.59,19.43,4.44,4.89,4.37,7.65,10,9.17,16.31,2.29,9.47,1.52,18.63-3.1,27.35a2.19,2.19,0,0,0-.26,1.11c.49,4.76,1.41,9.4,4,13.55.65,1.07,1.43,2.06,2.22,3.19-3.9,1.67-7.8,3.32-11.7,5-3.07,1.31-6.16,2.61-9.21,4a1.12,1.12,0,0,1-1.56-.29c-1.42-1.62-3-3.12-4.36-4.79a4.7,4.7,0,0,1-.74-2.26c-.49-3.23-.89-6.48-1.38-9.72A1.51,1.51,0,0,0,129.54,78.3Zm1.82,19.83c.33.13.59.2.82.32,2.14,1.1,4.26,2.24,6.42,3.29a2.57,2.57,0,0,0,1.62.18c3.8-.91,7.59-1.88,11.38-2.83.17,0,.35,0,.73-.08l-4.41,10.27c-2.82-1.31-5.44-2.56-8.09-3.75a3,3,0,0,0-1.53-.22c-2.55.39-5.09.84-7.81,1.31C130.78,103.77,131.06,101,131.36,98.13Zm5,56.57-.23-.09V151.5c0-6.59,0-13.18,0-19.77a3.18,3.18,0,0,1,.51-1.67q14.31-20.76,28.66-41.49a2,2,0,0,1,2.25-1.06c6.08.68,12.17,1.23,18.52,1.84Z"/><path class="cls-2" d="M259.45,90.21l4.2-5.12H237.37V77.53h42.79l-24.49,30.76-4.36,5.43h27.48v7.55H235.22Z"/><path class="cls-3" d="M298.64,77.53h37.25v7.78H307.51V94h25.13v7.31H307.51v12.17h29v7.75H298.64Z"/><path class="cls-4" d="M357.79,77.53h39.12v7.78H366.66V96.76h25.69v7.3H366.66v17.21h-8.87Z"/><path class="cls-5" d="M431.85,77.53h9.4l21.16,43.74h-9.32l-3.5-7.36H424l-3.38,7.36h-9.35Zm14.24,29.08-9.46-19.87-9.2,19.87Z"/><path class="cls-6" d="M480.67,77.53h39.12v7.78H489.54V96.76h25.69v7.3H489.54v17.21h-8.87Z"/><path class="cls-7" d="M538.69,77.53h8.93v43.74h-8.93Z"/></g></g></svg>